<svg width="14" height="22" viewBox="0 0 14 22" fill="none" xmlns="http://www.w3.org/2000/svg">
<g clip-path="url(#clip0_1_7907)">
<path d="M12.89 5.81564V17.4335C12.89 19.0428 12.1006 19.8398 10.5143 19.8398H2.37568C0.789338 19.8398 0 19.0428 0 17.4335V5.81564C0 4.20631 0.789338 3.40931 2.37568 3.40931H2.47713C2.47068 3.4716 2.46764 3.53559 2.46764 3.6009V4.40556C2.46764 4.48714 2.47246 4.56669 2.48353 4.64313L2.43699 4.64312C1.63998 4.64312 1.23382 5.07229 1.23382 5.83097V17.4182C1.23382 18.1845 1.63998 18.606 2.43699 18.606H10.453C11.25 18.606 11.6561 18.1845 11.6561 17.4182V5.83097C11.6561 5.07229 11.25 4.64312 10.453 4.64312L10.4064 4.64313C10.4175 4.56669 10.4223 4.48714 10.4223 4.40556V3.6009C10.4223 3.53559 10.4193 3.4716 10.4129 3.40931H10.5143C12.1006 3.40931 12.89 4.20631 12.89 5.81564Z" fill="white"/>
<path d="M4.07709 5.16425H8.81314C9.25757 5.16425 9.52582 4.8807 9.52582 4.40556V3.6009C9.52582 3.12576 9.25757 2.84221 8.81314 2.84221H8.10805C8.05443 1.97624 7.33404 1.2712 6.4451 1.2712C5.55613 1.2712 4.83577 1.97624 4.78213 2.84221H4.07709C3.6326 2.84221 3.36438 3.12576 3.36438 3.6009V4.40556C3.36438 4.8807 3.6326 5.16425 4.07709 5.16425ZM6.4451 3.57024C6.07726 3.57024 5.77838 3.2637 5.77838 2.90352C5.77838 2.52801 6.07726 2.22913 6.4451 2.22913C6.81297 2.22913 7.11183 2.52801 7.11183 2.90352C7.11183 3.2637 6.81297 3.57024 6.4451 3.57024Z" fill="white"/>
<path d="M3.06544 15.0271H6.46802C6.72861 15.0271 6.94317 14.8126 6.94317 14.552C6.94317 14.2914 6.73626 14.0769 6.46802 14.0769H3.06544C2.79722 14.0769 2.58264 14.2914 2.58264 14.552C2.58264 14.8126 2.80488 15.0271 3.06544 15.0271Z" fill="white"/>
<path d="M3.06544 12.161H9.82461C10.0929 12.161 10.3074 11.9464 10.3074 11.6782C10.3074 11.4176 10.0929 11.2107 9.82461 11.2107H3.06544C2.79722 11.2107 2.58264 11.4176 2.58264 11.6782C2.58264 11.9464 2.79722 12.161 3.06544 12.161Z" fill="white"/>
<path d="M3.06544 9.44049H9.82461C10.0852 9.44049 10.3074 9.22587 10.3074 8.96533C10.3074 8.7048 10.0852 8.48252 9.82461 8.48252H3.06544C2.80488 8.48252 2.58264 8.7048 2.58264 8.96533C2.58264 9.22587 2.80488 9.44049 3.06544 9.44049Z" fill="white"/>
</g>
<defs>
<clipPath id="clip0_1_7907">
<rect width="13.1199" height="21.2355" fill="white" transform="translate(0 0.382229)"/>
</clipPath>
</defs>
</svg>
