<svg width="28" height="28" viewBox="0 0 28 28" fill="none" xmlns="http://www.w3.org/2000/svg">
<g clip-path="url(#clip0_1_8058)">
<path d="M6.72828 24.1074H9.25953C9.50562 24.1074 9.6814 24.1777 9.85718 24.3535L11.6619 26.1465C13.1384 27.6347 14.5095 27.623 15.9861 26.1465L17.7908 24.3535C17.9666 24.1777 18.1423 24.1074 18.3884 24.1074H20.9197C23.0173 24.1074 23.99 23.1465 23.99 21.0371V18.5058C23.99 18.2597 24.0603 18.0957 24.2361 17.9082L26.0173 16.1035C27.5056 14.6269 27.4939 13.2676 26.0173 11.7793L24.2361 9.97463C24.0603 9.79885 23.99 9.62307 23.99 9.3887V6.84573C23.99 4.75979 23.0291 3.77541 20.9197 3.77541H18.3884C18.1423 3.77541 17.9666 3.71682 17.7908 3.54104L15.9861 1.74807C14.5095 0.259785 13.1384 0.271504 11.6619 1.74807L9.85718 3.54104C9.6814 3.71682 9.50562 3.77541 9.25953 3.77541H6.72828C4.63062 3.77541 3.65796 4.73635 3.65796 6.84573V9.3887C3.65796 9.62307 3.59937 9.79885 3.42359 9.97463L1.63062 11.7793C0.142338 13.2676 0.154057 14.6269 1.63062 16.1035L3.42359 17.9082C3.59937 18.0957 3.65796 18.2597 3.65796 18.5058V21.0371C3.65796 23.1347 4.63062 24.1074 6.72828 24.1074ZM6.72828 22.2441C5.68531 22.2441 5.52125 22.0801 5.52125 21.0371V17.8847C5.52125 17.5332 5.41578 17.2636 5.15796 17.0058L2.94312 14.8027C2.20484 14.0527 2.20484 13.8418 2.94312 13.0918L5.15796 10.8886C5.41578 10.6309 5.52125 10.3613 5.52125 9.99807V6.84573C5.52125 5.79104 5.67359 5.6387 6.72828 5.6387H9.88062C10.2439 5.6387 10.5134 5.54495 10.7712 5.27541L12.9744 3.06057C13.7244 2.32229 13.9353 2.32229 14.6736 3.06057L16.8884 5.27541C17.1345 5.54495 17.4158 5.6387 17.7673 5.6387H20.9197C21.9627 5.6387 22.1267 5.80276 22.1267 6.84573V9.99807C22.1267 10.3613 22.2439 10.6309 22.5017 10.8886L24.7166 13.0918C25.4548 13.8418 25.4548 14.0527 24.7166 14.8027L22.5017 17.0058C22.2439 17.2636 22.1267 17.5332 22.1267 17.8847V21.0371C22.1267 22.0801 21.9627 22.2441 20.9197 22.2441H17.7673C17.4158 22.2441 17.1345 22.3496 16.8884 22.6191L14.6736 24.834C13.9353 25.5722 13.7244 25.5722 12.9744 24.834L10.7712 22.6191C10.5134 22.3496 10.2439 22.2441 9.88062 22.2441H6.72828Z" fill="white"/>
<path d="M12.5525 19.5019C12.9392 19.5019 13.2673 19.3144 13.5017 18.9629L18.8572 10.5254C18.9861 10.3028 19.1384 10.0449 19.1384 9.7754C19.1384 9.25978 18.6697 8.91994 18.1892 8.91994C17.8845 8.91994 17.5916 9.09572 17.3689 9.44728L12.5056 17.2519L10.197 14.2636C9.91577 13.8886 9.65795 13.7832 9.34155 13.7832C8.82592 13.7832 8.42749 14.1933 8.42749 14.7207C8.42749 14.9668 8.53295 15.2246 8.69702 15.4472L11.5564 18.9629C11.8494 19.3496 12.1658 19.5019 12.5525 19.5019Z" fill="white"/>
</g>
<defs>
<clipPath id="clip0_1_8058">
<rect width="26.9619" height="26.7275" fill="white" transform="translate(0.518799 0.636246)"/>
</clipPath>
</defs>
</svg>
