<svg width="19" height="16" viewBox="0 0 19 16" fill="none" xmlns="http://www.w3.org/2000/svg">
<g clip-path="url(#clip0_1_8001)">
<path d="M15.7312 13.5794C16.0319 13.7826 16.4057 13.7094 16.6251 13.4006C17.6654 11.9702 18.275 10.0034 18.275 7.99591C18.275 5.98848 17.6736 4.0054 16.6251 2.59124C16.4057 2.2824 16.0319 2.20925 15.7312 2.41244C15.4304 2.61562 15.3817 2.99761 15.6173 3.33083C16.5033 4.58244 17.0152 6.2648 17.0152 7.99591C17.0152 9.72704 16.487 11.3932 15.6173 12.661C15.3898 12.9943 15.4304 13.3763 15.7312 13.5794Z" fill="white"/>
<path d="M12.7241 11.4582C12.9924 11.6452 13.3743 11.5882 13.5937 11.2713C14.2196 10.4504 14.5935 9.23943 14.5935 7.99593C14.5935 6.75247 14.2196 5.54961 13.5937 4.72063C13.3743 4.40366 12.9924 4.33864 12.7241 4.5337C12.3909 4.76127 12.3422 5.16763 12.5941 5.50085C13.0655 6.15104 13.3337 7.05318 13.3337 7.99593C13.3337 8.93872 13.0573 9.83275 12.5941 10.4911C12.3503 10.8324 12.3909 11.2225 12.7241 11.4582Z" fill="white"/>
<path d="M1.78462 11.3039H4.11717C4.19032 11.3039 4.25534 11.3283 4.31223 11.377L7.97767 14.6605C8.36778 15.01 8.6685 15.1725 9.05861 15.1725C9.57876 15.1725 9.97699 14.7905 9.97699 14.2623V1.79489C9.97699 1.26661 9.57876 0.835861 9.04238 0.835861C8.6522 0.835861 8.40031 1.01466 7.97767 1.39665L4.31223 4.64759C4.25534 4.69635 4.19032 4.72074 4.11717 4.72074H1.78462C0.679298 4.72074 0.134766 5.28153 0.134766 6.45999V9.57279C0.134766 10.7512 0.687426 11.3039 1.78462 11.3039ZM1.84151 10.1173C1.5408 10.1173 1.40263 9.97913 1.40263 9.67841V6.35434C1.40263 6.0455 1.5408 5.90733 1.84151 5.90733H4.44227C4.65357 5.90733 4.81612 5.86669 5.00305 5.69602L8.46529 2.55074C8.50594 2.5101 8.54658 2.48571 8.60345 2.48571C8.66039 2.48571 8.70914 2.52635 8.70914 2.5995V13.4008C8.70914 13.4739 8.66039 13.5227 8.60345 13.5227C8.56281 13.5227 8.51405 13.4983 8.46529 13.4576L5.00305 10.3286C4.81612 10.166 4.65357 10.1173 4.44227 10.1173H1.84151Z" fill="white"/>
</g>
<defs>
<clipPath id="clip0_1_8001">
<rect width="18.3841" height="14.3448" fill="white" transform="translate(0.134766 0.827606)"/>
</clipPath>
</defs>
</svg>
