<svg width="11" height="16" viewBox="0 0 11 16" fill="none" xmlns="http://www.w3.org/2000/svg">
<g clip-path="url(#clip0_1_7996)">
<path d="M9.90396 3.94843V1.05498C9.90396 0.647134 9.57306 0.385492 9.18057 0.462446L5.22518 1.32432C4.73268 1.43206 4.46334 1.7014 4.46334 2.13234L4.47873 10.6895C4.5172 11.0666 4.34021 11.3129 4.00161 11.3821L2.77805 11.6361C1.23899 11.9593 0.515625 12.7442 0.515625 13.9062C0.515625 15.0836 1.42367 15.907 2.7011 15.907C3.83232 15.907 5.5253 15.0759 5.5253 12.8365V5.79532C5.5253 5.38747 5.60224 5.30281 5.96393 5.22586L9.48067 4.45633C9.74235 4.40246 9.90396 4.20238 9.90396 3.94843Z" fill="white"/>
</g>
<defs>
<clipPath id="clip0_1_7996">
<rect width="9.61915" height="15.8139" fill="white" transform="translate(0.515625 0.0930481)"/>
</clipPath>
</defs>
</svg>
