<svg width="23" height="18" viewBox="0 0 23 18" fill="none" xmlns="http://www.w3.org/2000/svg">
<g clip-path="url(#clip0_1_7990)">
<path d="M17.129 3.71747V4.08019H15.8865V3.72519C15.8865 2.22031 15.1456 1.42542 13.5944 1.42542H3.65454C2.09563 1.42542 1.36249 2.22031 1.36249 3.72519V9.62894C1.36249 11.1339 2.09563 11.921 3.65454 11.921H4.60376C5.02051 11.921 5.18257 12.0831 5.18257 12.5075V14.7378L7.65211 12.2914C7.88412 12.0533 8.06779 11.9601 8.34879 11.9318C8.36993 12.41 8.45324 12.834 8.59792 13.201L5.97745 15.5404C5.5067 15.9495 5.24431 16.1501 4.86616 16.1501C4.32594 16.1501 4.02497 15.7719 4.02497 15.1777V13.1635H3.65454C1.35477 13.1635 0.119995 11.8978 0.119995 9.63665V3.71747C0.119995 1.45629 1.35477 0.18293 3.65454 0.18293H13.5944C15.8942 0.18293 17.129 1.45629 17.129 3.71747Z" fill="white"/>
<path d="M12.5448 8.74143H18.1322C18.464 8.74143 18.711 8.49447 18.711 8.1704C18.711 7.83856 18.464 7.5916 18.1322 7.5916H12.5448C12.2053 7.5916 11.966 7.83856 11.966 8.1704C11.966 8.49447 12.2053 8.74143 12.5448 8.74143ZM12.5448 11.5969H16.635C16.9591 11.5969 17.2215 11.3653 17.2215 11.0335C17.2215 10.7094 16.9591 10.447 16.635 10.447H12.5448C12.2053 10.447 11.966 10.7094 11.966 11.0335C11.966 11.3653 12.2053 11.5969 12.5448 11.5969ZM11.7268 15.0234H14.2272L16.8047 17.2305C17.2755 17.6318 17.5302 17.8402 17.9006 17.8402C18.4331 17.8402 18.7341 17.462 18.7341 16.8755V15.0234H18.8961C21.1187 15.0234 22.284 13.8272 22.284 11.6432V7.46813C22.284 5.27637 21.1187 4.08018 18.8961 4.08018H11.7268C9.50416 4.08018 8.33887 5.27637 8.33887 7.46813V11.6432C8.33887 13.8349 9.50416 15.0234 11.7268 15.0234ZM11.7499 13.7809C10.2373 13.7809 9.58905 13.0709 9.58905 11.6278V7.48354C9.58905 6.04039 10.2373 5.32268 11.7499 5.32268H18.8807C20.3856 5.32268 21.0416 6.04039 21.0416 7.48354V11.62C21.0416 13.0709 20.3856 13.7809 18.8807 13.7809H18.1708C17.8389 13.7809 17.5765 13.9815 17.5765 14.4137V16.4356L14.9681 14.105C14.7134 13.8658 14.4973 13.7809 14.1809 13.7809H11.7499Z" fill="white"/>
</g>
<defs>
<clipPath id="clip0_1_7990">
<rect width="22.3957" height="17.6804" fill="white" transform="translate(0.119873 0.159779)"/>
</clipPath>
</defs>
</svg>
