<svg width="114" height="32" viewBox="0 0 114 32" fill="none" xmlns="http://www.w3.org/2000/svg">
<path d="M1.09114 23.9093C1.09114 21.1565 2.29551 18.9772 4.28367 17.8301C5.25863 17.2566 6.36741 16.9699 7.61001 16.9699C10.8216 16.9699 13.1539 18.9389 13.4215 21.7491H11.2422C10.9363 19.8374 9.6364 18.6904 7.57177 18.6904C4.99099 18.6904 3.21312 20.6786 3.21312 23.9093C3.21312 27.1783 5.02922 29.2812 7.55266 29.2812C9.6364 29.2812 11.051 28.0577 11.376 26.1651H13.4407C13.2686 27.6371 12.6569 28.8224 11.6054 29.6826C10.554 30.5429 9.21583 30.9826 7.55266 30.9826C3.67192 30.9826 1.09114 28.2871 1.09114 23.9093ZM15.2306 30.6767V21.4241H17.1232V21.9403C17.1232 22.4182 17.1232 22.7814 17.1041 23.0108C17.582 21.8829 18.5761 21.1182 19.9334 21.1182C20.1246 21.1182 20.2775 21.1182 20.3731 21.1374V23.0108C20.2393 22.9726 20.0481 22.9535 19.7996 22.9535C18.0982 22.9535 17.1232 23.9093 17.1232 25.8975V30.6767H15.2306ZM21 26.0122C21 24.1196 21.8221 22.5711 23.1985 21.73C23.8676 21.3285 24.6323 21.1182 25.4925 21.1182C26.8689 21.1182 27.9395 21.5579 28.7042 22.4373C29.4688 23.3358 29.8512 24.5402 29.8512 26.0504V26.4519H22.9309C22.95 28.3062 24.0588 29.4914 25.6072 29.4914C26.7734 29.4914 27.6527 28.9562 27.863 27.7518H29.7747C29.6791 28.6885 29.2585 29.4532 28.5321 30.065C27.8057 30.6767 26.8307 30.9826 25.5881 30.9826C22.7588 30.9826 21 29.1665 21 26.0122ZM23.7529 23.2785C23.275 23.7564 23.0073 24.349 22.95 25.0946H27.8439C27.8439 23.5652 26.9454 22.5711 25.4925 22.5711C24.7852 22.5711 24.2117 22.8005 23.7529 23.2785ZM31.2457 28.1341C31.2457 26.5092 32.3353 25.5151 34.5147 25.1901L36.2543 24.9225C36.9616 24.8269 37.2292 24.5784 37.2292 24.0431C37.2292 23.1446 36.541 22.5711 35.4896 22.5711C34.247 22.5711 33.4823 23.2593 33.425 24.349H31.4942C31.6089 22.552 33.0426 21.1182 35.3558 21.1182C37.8219 21.1182 39.1027 22.4755 39.1027 24.846V30.6767H37.3057V30.237C37.3057 30.065 37.3248 29.7973 37.344 29.415C36.866 30.3899 35.8337 30.9826 34.4382 30.9826C32.6985 30.9826 31.2457 29.8738 31.2457 28.1341ZM35.0882 26.5283C33.8264 26.7768 33.1956 27.293 33.1956 28.0959C33.1956 28.9944 33.8838 29.5297 34.8205 29.5297C36.2161 29.5297 37.2484 28.5738 37.2484 27.1401V25.9166C37.1145 26.0695 36.7513 26.2033 36.1969 26.318L35.0882 26.5283ZM40.3017 21.4241H42.1752V18.2507H44.0868V21.4241H46.1323V22.9535H44.0868V27.7136C44.0868 28.6885 44.5456 29.1856 45.4441 29.1856C45.6544 29.1856 45.8838 29.1665 46.1323 29.1282V30.6576C45.75 30.7532 45.3486 30.8105 44.9471 30.8105C43.2457 30.8105 42.1752 29.912 42.1752 27.943V22.9535H40.3017V21.4241ZM49.834 19.7992H47.7311V17.6581H49.834V19.7992ZM47.8458 30.6767V21.4241H49.7384V30.6767H47.8458ZM51.082 21.4241H53.1466L55.3833 27.9047C55.4597 28.1341 55.5553 28.4783 55.6892 28.9179C55.7656 28.6503 55.8803 28.3062 56.0141 27.9047L58.1935 21.4241H60.1816L56.7023 30.6767H54.5995L51.082 21.4241ZM60.7796 26.0122C60.7796 24.1196 61.6017 22.5711 62.9781 21.73C63.6472 21.3285 64.4118 21.1182 65.2721 21.1182C66.6485 21.1182 67.7191 21.5579 68.4837 22.4373C69.2484 23.3358 69.6307 24.5402 69.6307 26.0504V26.4519H62.7104C62.7295 28.3062 63.8383 29.4914 65.3868 29.4914C66.5529 29.4914 67.4323 28.9562 67.6426 27.7518H69.5543C69.4587 28.6885 69.0381 29.4532 68.3117 30.065C67.5852 30.6767 66.6103 30.9826 65.3677 30.9826C62.5384 30.9826 60.7796 29.1665 60.7796 26.0122ZM63.5325 23.2785C63.0545 23.7564 62.7869 24.349 62.7295 25.0946H67.6235C67.6235 23.5652 66.725 22.5711 65.2721 22.5711C64.5648 22.5711 63.9913 22.8005 63.5325 23.2785Z" fill="white"/>
<path fill-rule="evenodd" clip-rule="evenodd" d="M12.036 14.2096H14.7166L8.91672 0.184326L7.55206 3.42828L12.036 14.2096ZM1.89844 14.2096L3.2631 10.918C3.70175 9.77306 4.87146 8.96208 6.13865 8.96208H6.72351L5.40758 12.2537C4.96894 13.3986 3.79922 14.2096 2.4833 14.2096H1.89844ZM16.5686 0.232034V14.2573H18.8106V0.232034H16.5686ZM20.955 9.53454C20.955 12.54 23.0508 14.4005 25.9263 14.4005C28.412 14.4005 30.1178 13.3032 30.4102 11.2996H28.217C28.0708 12.2537 27.3397 12.7785 25.9751 12.7785C24.2692 12.7785 23.3432 11.7767 23.2945 9.91618H30.4102V9.29601C30.4102 5.86124 28.217 4.47779 25.7801 4.47779C23.002 4.47779 20.9063 6.4337 20.9063 9.43913V9.53454H20.955ZM28.1683 8.43732H23.2945C23.5382 6.95846 24.4154 6.05206 25.7801 6.05206C27.1935 6.05206 28.0708 6.76764 28.1683 8.43732ZM32.4572 17.5013V4.6209H34.6992V6.14747C35.2353 5.24107 36.4538 4.43009 37.9159 4.43009C40.3528 4.43009 42.2536 6.19518 42.2536 9.29601V9.43913C42.2536 12.54 40.4503 14.4005 37.9159 14.4005C36.3563 14.4005 35.2353 13.6372 34.6992 12.7308V17.5013H32.4572ZM37.331 12.6354C38.9881 12.6354 39.9142 11.5381 39.9142 9.48683V9.34371C39.9142 7.19698 38.7932 6.19518 37.331 6.19518C35.7714 6.19518 34.6504 7.24468 34.6504 9.34371V9.48683C34.6504 11.6336 35.7227 12.6354 37.331 12.6354ZM44.3006 0.232034V14.2573H46.5425V8.62813C46.5425 7.10157 47.566 6.33829 48.8332 6.33829C50.1979 6.33829 50.7828 7.00616 50.7828 8.43732V14.2573H53.0247V8.2465C53.0247 5.62272 51.66 4.47779 49.6618 4.47779C48.0534 4.47779 46.9812 5.28878 46.4938 6.19518V0.232034H44.3006Z" fill="white"/>
<path d="M72.1594 30.981H71.1449L75.2609 20.8359H76.3624L80.5219 30.981H79.4639L78.203 27.807H73.4058L72.1594 30.981ZM73.7247 26.9954H77.8696L76.174 22.7345C76.1305 22.633 76.1015 22.5316 76.058 22.4301L75.7972 21.7924L75.4059 22.749L73.7247 26.9954ZM82.2073 30.1549C81.5407 29.4737 81.2073 28.4737 81.2073 27.1693V20.8359H82.1639V27.0679C82.1639 29.2708 83.1494 30.3723 84.932 30.3723C86.7146 30.3723 87.7002 29.2708 87.7002 27.0679V20.8359H88.6567V27.1693C88.6567 29.778 87.2509 31.1839 84.932 31.1839C83.7726 31.1839 82.8595 30.836 82.2073 30.1549ZM90.792 20.8359H93.821C97.1689 20.8359 99.111 22.5606 99.111 25.9084C99.111 27.4882 98.6762 28.7346 97.8066 29.6331C96.9225 30.5317 95.6761 30.981 94.0674 30.981H90.792V20.8359ZM91.7486 30.1549H93.9805C96.6327 30.1549 98.111 28.7346 98.111 25.9084C98.111 23.1838 96.6617 21.6475 93.879 21.6475H91.7486V30.1549ZM100.714 30.981V20.8359H101.671V30.981H100.714ZM103.261 25.9084C103.261 23.8649 104.131 22.1837 105.58 21.2852C106.29 20.8359 107.102 20.6185 107.986 20.6185C109.768 20.6185 111.261 21.5606 112.087 23.1693C112.493 23.9664 112.696 24.8794 112.696 25.9084C112.696 27.9519 111.826 29.6331 110.392 30.5172C109.667 30.9665 108.87 31.1839 107.986 31.1839C106.203 31.1839 104.696 30.2563 103.884 28.6476C103.464 27.8505 103.261 26.9374 103.261 25.9084ZM104.261 25.9084C104.261 28.5606 105.783 30.3723 107.986 30.3723C109.435 30.3723 110.609 29.5896 111.232 28.2418C111.537 27.5606 111.696 26.7925 111.696 25.9084C111.696 23.2562 110.16 21.4446 107.986 21.4446C105.797 21.4446 104.261 23.2562 104.261 25.9084Z" fill="white"/>
</svg>
