<svg fill="none" height="1378" viewBox="0 0 623 1378" width="623" xmlns="http://www.w3.org/2000/svg" xmlns:xlink="http://www.w3.org/1999/xlink"><linearGradient id="a" gradientUnits="userSpaceOnUse" x1="35.5" x2="898.522" y1="319" y2="734.461"><stop offset="0" stop-color="#0080ff" stop-opacity=".54"/><stop offset="1" stop-color="#0080ff" stop-opacity=".12"/></linearGradient><g fill="url(#a)" opacity=".7"><path d="m14.7119 41v7.3565h7.356v-7.3565z"/><path d="m58.8477 41v7.3565h7.3559v-7.3565z"/><path d="m102.994 41v7.3565h7.356v-7.3565z"/><path d="m250.124 41v7.3565h7.356v-7.3565z"/><path d="m308.983 41v7.3565h7.356v-7.3565z"/><path d="m353.119 41v7.3565h7.356v-7.3565z"/><path d="m367.842 41v7.3565h7.356v-7.3565z"/><path d="m88.2715 55.7129v7.3565h7.3559v-7.3565z"/><path d="m147.13 55.7129v7.3565h7.356v-7.3565z"/><path d="m161.842 55.7129v7.3565h7.356v-7.3565z"/><path d="m205.988 55.7129v7.3565h7.356v-7.3565z"/><path d="m250.124 55.7129v7.3565h7.356v-7.3565z"/><path d="m264.836 55.7129v7.3565h7.356v-7.3565z"/><path d="m308.983 55.7129v7.3565h7.356v-7.3565z"/><path d="m382.554 55.7129v7.3565h7.356v-7.3565z"/><path d="m411.978 55.7129v7.3565h7.355v-7.3565z"/><path d="m485.548 55.7129v7.3565h7.356v-7.3565z"/><path d="m29.4238 70.4257v7.3566h7.356v-7.3566z"/><path d="m44.1357 70.4257v7.3566h7.356v-7.3566z"/><path d="m73.5596 70.4257v7.3566h7.3559v-7.3566z"/><path d="m176.554 70.4257v7.3566h7.356v-7.3566z"/><path d="m0 85.1387v7.3564h7.356v-7.3564z"/><path d="m58.8477 85.1387v7.3564h7.3559v-7.3564z"/><path d="m117.706 85.1387v7.3564h7.356v-7.3564z"/><path d="m235.412 85.1387v7.3564h7.356v-7.3564z"/><path d="m250.124 85.1387v7.3564h7.356v-7.3564z"/><path d="m294.271 85.1387v7.3564h7.355v-7.3564z"/><path d="m338.407 85.1387v7.3564h7.356v-7.3564z"/><path d="m426.689 85.1387v7.3564h7.356v-7.3564z"/><path d="m529.684 85.1387v7.3564h7.356v-7.3564z"/><path d="m14.7119 99.8623v7.3567h7.356v-7.3567z"/><path d="m102.994 99.8623v7.3567h7.356v-7.3567z"/><path d="m117.706 99.8623v7.3567h7.356v-7.3567z"/><path d="m191.276 99.8623v7.3567h7.356v-7.3567z"/><path d="m205.988 99.8623v7.3567h7.356v-7.3567z"/><path d="m294.271 99.8623v7.3567h7.355v-7.3567z"/><path d="m323.695 99.8623v7.3567h7.356v-7.3567z"/><path d="m0 114.575v7.357h7.356v-7.357z"/><path d="m88.2715 114.575v7.357h7.3559v-7.357z"/><path d="m102.994 114.575v7.357h7.356v-7.357z"/><path d="m205.988 114.575v7.357h7.356v-7.357z"/><path d="m235.412 114.575v7.357h7.356v-7.357z"/><path d="m353.119 114.575v7.357h7.356v-7.357z"/><path d="m529.684 114.575v7.357h7.356v-7.357z"/><path d="m0 129.288v7.357h7.356v-7.357z"/><path d="m14.7119 129.288v7.357h7.356v-7.357z"/><path d="m58.8477 129.288v7.357h7.3559v-7.357z"/><path d="m73.5596 129.288v7.357h7.3559v-7.357z"/><path d="m102.994 129.288v7.357h7.356v-7.357z"/><path d="m117.706 129.288v7.357h7.356v-7.357z"/><path d="m161.842 129.288v7.357h7.356v-7.357z"/><path d="m176.554 129.288v7.357h7.356v-7.357z"/><path d="m250.124 129.288v7.357h7.356v-7.357z"/><path d="m308.983 129.288v7.357h7.356v-7.357z"/><path d="m367.842 129.288v7.357h7.356v-7.357z"/><path d="m500.26 129.288v7.357h7.356v-7.357z"/><path d="m14.7119 144.001v7.356h7.356v-7.356z"/><path d="m29.4238 144.001v7.356h7.356v-7.356z"/><path d="m44.1357 144.001v7.356h7.356v-7.356z"/><path d="m132.418 144.001v7.356h7.356v-7.356z"/><path d="m235.412 144.001v7.356h7.356v-7.356z"/><path d="m397.266 144.001v7.356h7.356v-7.356z"/><path d="m0 158.714v7.356h7.356v-7.356z"/><path d="m29.4238 158.714v7.356h7.356v-7.356z"/><path d="m44.1357 158.714v7.356h7.356v-7.356z"/><path d="m58.8477 158.714v7.356h7.3559v-7.356z"/><path d="m88.2715 158.714v7.356h7.3559v-7.356z"/><path d="m147.13 158.714v7.356h7.356v-7.356z"/><path d="m220.7 158.714v7.356h7.356v-7.356z"/><path d="m250.124 158.714v7.356h7.356v-7.356z"/><path d="m294.271 158.714v7.356h7.355v-7.356z"/><path d="m382.554 158.714v7.356h7.356v-7.356z"/><path d="m0 173.427v7.356h7.356v-7.356z"/><path d="m29.4238 173.427v7.356h7.356v-7.356z"/><path d="m58.8477 173.427v7.356h7.3559v-7.356z"/><path d="m88.2715 173.427v7.356h7.3559v-7.356z"/><path d="m191.276 173.427v7.356h7.356v-7.356z"/><path d="m250.124 173.427v7.356h7.356v-7.356z"/><path d="m294.271 173.427v7.356h7.355v-7.356z"/><path d="m323.695 173.427v7.356h7.356v-7.356z"/><path d="m73.5596 188.15v7.357h7.3559v-7.357z"/><path d="m88.2715 188.15v7.357h7.3559v-7.357z"/><path d="m176.554 188.15v7.357h7.356v-7.357z"/><path d="m205.988 188.15v7.357h7.356v-7.357z"/><path d="m235.412 188.15v7.357h7.356v-7.357z"/><path d="m294.271 188.15v7.357h7.355v-7.357z"/><path d="m323.695 188.15v7.357h7.356v-7.357z"/><path d="m470.836 188.15v7.357h7.356v-7.357z"/><path d="m485.548 188.15v7.357h7.356v-7.357z"/><path d="m529.684 188.15v7.357h7.356v-7.357z"/><path d="m573.83 188.15v7.357h7.356v-7.357z"/><path d="m14.7119 202.863v7.357h7.356v-7.357z"/><path d="m102.994 202.863v7.357h7.356v-7.357z"/><path d="m147.13 202.863v7.357h7.356v-7.357z"/><path d="m161.842 202.863v7.357h7.356v-7.357z"/><path d="m220.7 202.863v7.357h7.356v-7.357z"/><path d="m397.266 202.863v7.357h7.356v-7.357z"/><path d="m485.548 202.863v7.357h7.356v-7.357z"/><path d="m573.83 202.863v7.357h7.356v-7.357z"/><path d="m14.7119 217.576v7.357h7.356v-7.357z"/><path d="m29.4238 217.576v7.357h7.356v-7.357z"/><path d="m58.8477 217.576v7.357h7.3559v-7.357z"/><path d="m117.706 217.576v7.357h7.356v-7.357z"/><path d="m161.842 217.576v7.357h7.356v-7.357z"/><path d="m191.276 217.576v7.357h7.356v-7.357z"/><path d="m250.124 217.576v7.357h7.356v-7.357z"/><path d="m338.407 217.576v7.357h7.356v-7.357z"/><path d="m441.401 217.576v7.357h7.356v-7.357z"/><path d="m29.4238 232.29v7.357h7.356v-7.357z"/><path d="m58.8477 232.29v7.357h7.3559v-7.357z"/><path d="m102.994 232.29v7.357h7.356v-7.357z"/><path d="m117.706 232.29v7.357h7.356v-7.357z"/><path d="m132.418 232.29v7.357h7.356v-7.357z"/><path d="m191.276 232.29v7.357h7.356v-7.357z"/><path d="m235.412 232.29v7.357h7.356v-7.357z"/><path d="m456.124 232.29v7.357h7.356v-7.357z"/><path d="m514.972 232.29v7.357h7.356v-7.357z"/><path d="m544.406 232.29v7.357h7.356v-7.357z"/><path d="m573.83 232.29v7.357h7.356v-7.357z"/><path d="m0 247.003v7.356h7.356v-7.356z"/><path d="m14.7119 247.003v7.356h7.356v-7.356z"/><path d="m58.8477 247.003v7.356h7.3559v-7.356z"/><path d="m88.2715 247.003v7.356h7.3559v-7.356z"/><path d="m220.7 247.003v7.356h7.356v-7.356z"/><path d="m235.412 247.003v7.356h7.356v-7.356z"/><path d="m308.983 247.003v7.356h7.356v-7.356z"/><path d="m323.695 247.003v7.356h7.356v-7.356z"/><path d="m367.842 247.003v7.356h7.356v-7.356z"/><path d="m426.689 247.003v7.356h7.356v-7.356z"/><path d="m544.406 247.003v7.356h7.356v-7.356z"/><path d="m0 261.716v7.356h7.356v-7.356z"/><path d="m14.7119 261.716v7.356h7.356v-7.356z"/><path d="m29.4238 261.716v7.356h7.356v-7.356z"/><path d="m44.1357 261.716v7.356h7.356v-7.356z"/><path d="m58.8477 261.716v7.356h7.3559v-7.356z"/><path d="m73.5596 261.716v7.356h7.3559v-7.356z"/><path d="m88.2715 261.716v7.356h7.3559v-7.356z"/><path d="m102.994 261.716v7.356h7.356v-7.356z"/><path d="m117.706 261.716v7.356h7.356v-7.356z"/><path d="m132.418 261.716v7.356h7.356v-7.356z"/><path d="m191.276 261.716v7.356h7.356v-7.356z"/><path d="m235.412 261.716v7.356h7.356v-7.356z"/><path d="m264.836 261.716v7.356h7.356v-7.356z"/><path d="m279.559 261.716v7.356h7.356v-7.356z"/><path d="m323.695 261.716v7.356h7.356v-7.356z"/><path d="m485.548 261.716v7.356h7.356v-7.356z"/><path d="m529.684 261.716v7.356h7.356v-7.356z"/><path d="m0 276.439v7.357h7.356v-7.357z"/><path d="m14.7119 276.439v7.357h7.356v-7.357z"/><path d="m29.4238 276.439v7.357h7.356v-7.357z"/><path d="m44.1357 276.439v7.357h7.356v-7.357z"/><path d="m58.8477 276.439v7.357h7.3559v-7.357z"/><path d="m73.5596 276.439v7.357h7.3559v-7.357z"/><path d="m88.2715 276.439v7.357h7.3559v-7.357z"/><path d="m117.706 276.439v7.357h7.356v-7.357z"/><path d="m205.988 276.439v7.357h7.356v-7.357z"/><path d="m264.836 276.439v7.357h7.356v-7.357z"/><path d="m367.842 276.439v7.357h7.356v-7.357z"/><path d="m544.406 276.439v7.357h7.356v-7.357z"/><path d="m0 291.152v7.357h7.356v-7.357z"/><path d="m29.4238 291.152v7.357h7.356v-7.357z"/><path d="m44.1357 291.152v7.357h7.356v-7.357z"/><path d="m161.842 291.152v7.357h7.356v-7.357z"/><path d="m191.276 291.152v7.357h7.356v-7.357z"/><path d="m220.7 291.152v7.357h7.356v-7.357z"/><path d="m235.412 291.152v7.357h7.356v-7.357z"/><path d="m367.842 291.152v7.357h7.356v-7.357z"/><path d="m500.26 291.152v7.357h7.356v-7.357z"/><path d="m0 305.865v7.357h7.356v-7.357z"/><path d="m29.4238 305.865v7.357h7.356v-7.357z"/><path d="m58.8477 305.865v7.357h7.3559v-7.357z"/><path d="m88.2715 305.865v7.357h7.3559v-7.357z"/><path d="m132.418 305.865v7.357h7.356v-7.357z"/><path d="m191.276 305.865v7.357h7.356v-7.357z"/><path d="m264.836 305.865v7.357h7.356v-7.357z"/><path d="m308.983 305.865v7.357h7.356v-7.357z"/><path d="m323.695 305.865v7.357h7.356v-7.357z"/><path d="m441.401 305.865v7.357h7.356v-7.357z"/><path d="m485.548 305.865v7.357h7.356v-7.357z"/><path d="m29.4238 320.578v7.357h7.356v-7.357z"/><path d="m58.8477 320.578v7.357h7.3559v-7.357z"/><path d="m88.2715 320.578v7.357h7.3559v-7.357z"/><path d="m132.418 320.578v7.357h7.356v-7.357z"/><path d="m161.842 320.578v7.357h7.356v-7.357z"/><path d="m176.554 320.578v7.357h7.356v-7.357z"/><path d="m279.559 320.578v7.357h7.356v-7.357z"/><path d="m308.983 320.578v7.357h7.356v-7.357z"/><path d="m323.695 320.578v7.357h7.356v-7.357z"/><path d="m367.842 320.578v7.357h7.356v-7.357z"/><path d="m470.836 320.578v7.357h7.356v-7.357z"/><path d="m14.7119 335.291v7.356h7.356v-7.356z"/><path d="m29.4238 335.291v7.356h7.356v-7.356z"/><path d="m58.8477 335.291v7.356h7.3559v-7.356z"/><path d="m161.842 335.291v7.356h7.356v-7.356z"/><path d="m279.559 335.291v7.356h7.356v-7.356z"/><path d="m397.266 335.291v7.356h7.356v-7.356z"/><path d="m470.836 335.291v7.356h7.356v-7.356z"/><path d="m485.548 335.291v7.356h7.356v-7.356z"/><path d="m29.4238 350.004v7.356h7.356v-7.356z"/><path d="m88.2715 350.004v7.356h7.3559v-7.356z"/><path d="m102.994 350.004v7.356h7.356v-7.356z"/><path d="m117.706 350.004v7.356h7.356v-7.356z"/><path d="m132.418 350.004v7.356h7.356v-7.356z"/><path d="m176.554 350.004v7.356h7.356v-7.356z"/><path d="m250.124 350.004v7.356h7.356v-7.356z"/><path d="m294.271 350.004v7.356h7.355v-7.356z"/><path d="m470.836 350.004v7.356h7.356v-7.356z"/><path d="m0 364.728v7.356h7.356v-7.356z"/><path d="m14.7119 364.728v7.356h7.356v-7.356z"/><path d="m132.418 364.728v7.356h7.356v-7.356z"/><path d="m191.276 364.728v7.356h7.356v-7.356z"/><path d="m367.842 364.728v7.356h7.356v-7.356z"/><path d="m29.4238 379.44v7.357h7.356v-7.357z"/><path d="m44.1357 379.44v7.357h7.356v-7.357z"/><path d="m73.5596 379.44v7.357h7.3559v-7.357z"/><path d="m88.2715 379.44v7.357h7.3559v-7.357z"/><path d="m102.994 379.44v7.357h7.356v-7.357z"/><path d="m235.412 379.44v7.357h7.356v-7.357z"/><path d="m250.124 379.44v7.357h7.356v-7.357z"/><path d="m382.554 379.44v7.357h7.356v-7.357z"/><path d="m456.124 379.44v7.357h7.356v-7.357z"/><path d="m514.972 379.44v7.357h7.356v-7.357z"/><path d="m0 394.154v7.357h7.356v-7.357z"/><path d="m73.5596 394.154v7.357h7.3559v-7.357z"/><path d="m88.2715 394.154v7.357h7.3559v-7.357z"/><path d="m117.706 394.154v7.357h7.356v-7.357z"/><path d="m132.418 394.154v7.357h7.356v-7.357z"/><path d="m235.412 394.154v7.357h7.356v-7.357z"/><path d="m397.266 394.154v7.357h7.356v-7.357z"/><path d="m426.689 394.154v7.357h7.356v-7.357z"/><path d="m500.26 394.154v7.357h7.356v-7.357z"/><path d="m529.684 394.154v7.357h7.356v-7.357z"/><path d="m544.406 394.154v7.357h7.356v-7.357z"/><path d="m14.7119 408.867v7.357h7.356v-7.357z"/><path d="m29.4238 408.867v7.357h7.356v-7.357z"/><path d="m44.1357 408.867v7.357h7.356v-7.357z"/><path d="m88.2715 408.867v7.357h7.3559v-7.357z"/><path d="m132.418 408.867v7.357h7.356v-7.357z"/><path d="m161.842 408.867v7.357h7.356v-7.357z"/><path d="m279.559 408.867v7.357h7.356v-7.357z"/><path d="m353.119 408.867v7.357h7.356v-7.357z"/><path d="m426.689 408.867v7.357h7.356v-7.357z"/><path d="m573.83 408.867v7.357h7.356v-7.357z"/><path d="m58.8477 423.58v7.357h7.3559v-7.357z"/><path d="m88.2715 423.58v7.357h7.3559v-7.357z"/><path d="m250.124 423.58v7.357h7.356v-7.357z"/><path d="m279.559 423.58v7.357h7.356v-7.357z"/><path d="m14.7119 438.293v7.356h7.356v-7.356z"/><path d="m29.4238 438.293v7.356h7.356v-7.356z"/><path d="m88.2715 438.293v7.356h7.3559v-7.356z"/><path d="m117.706 438.293v7.356h7.356v-7.356z"/><path d="m132.418 438.293v7.356h7.356v-7.356z"/><path d="m147.13 438.293v7.356h7.356v-7.356z"/><path d="m191.276 438.293v7.356h7.356v-7.356z"/><path d="m235.412 438.293v7.356h7.356v-7.356z"/><path d="m250.124 438.293v7.356h7.356v-7.356z"/><path d="m264.836 438.293v7.356h7.356v-7.356z"/><path d="m544.406 438.293v7.356h7.356v-7.356z"/><path d="m0 453.017v7.356h7.356v-7.356z"/><path d="m14.7119 453.017v7.356h7.356v-7.356z"/><path d="m29.4238 453.017v7.356h7.356v-7.356z"/><path d="m44.1357 453.017v7.356h7.356v-7.356z"/><path d="m73.5596 453.017v7.356h7.3559v-7.356z"/><path d="m88.2715 453.017v7.356h7.3559v-7.356z"/><path d="m117.706 453.017v7.356h7.356v-7.356z"/><path d="m147.13 453.017v7.356h7.356v-7.356z"/><path d="m205.988 453.017v7.356h7.356v-7.356z"/><path d="m264.836 453.017v7.356h7.356v-7.356z"/><path d="m279.559 453.017v7.356h7.356v-7.356z"/><path d="m323.695 453.017v7.356h7.356v-7.356z"/><path d="m353.119 453.017v7.356h7.356v-7.356z"/><path d="m102.994 467.729v7.357h7.356v-7.357z"/><path d="m132.418 467.729v7.357h7.356v-7.357z"/><path d="m161.842 467.729v7.357h7.356v-7.357z"/><path d="m235.412 467.729v7.357h7.356v-7.357z"/><path d="m250.124 467.729v7.357h7.356v-7.357z"/><path d="m323.695 467.729v7.357h7.356v-7.357z"/><path d="m0 482.442v7.357h7.356v-7.357z"/><path d="m14.7119 482.442v7.357h7.356v-7.357z"/><path d="m29.4238 482.442v7.357h7.356v-7.357z"/><path d="m58.8477 482.442v7.357h7.3559v-7.357z"/><path d="m102.994 482.442v7.357h7.356v-7.357z"/><path d="m117.706 482.442v7.357h7.356v-7.357z"/><path d="m250.124 482.442v7.357h7.356v-7.357z"/><path d="m264.836 482.442v7.357h7.356v-7.357z"/><path d="m353.119 482.442v7.357h7.356v-7.357z"/><path d="m0 497.155v7.357h7.356v-7.357z"/><path d="m29.4238 497.155v7.357h7.356v-7.357z"/><path d="m102.994 497.155v7.357h7.356v-7.357z"/><path d="m117.706 497.155v7.357h7.356v-7.357z"/><path d="m220.7 497.155v7.357h7.356v-7.357z"/><path d="m323.695 497.155v7.357h7.356v-7.357z"/><path d="m353.119 497.155v7.357h7.356v-7.357z"/><path d="m0 511.868v7.357h7.356v-7.357z"/><path d="m29.4238 511.868v7.357h7.356v-7.357z"/><path d="m58.8477 511.868v7.357h7.3559v-7.357z"/><path d="m73.5596 511.868v7.357h7.3559v-7.357z"/><path d="m102.994 511.868v7.357h7.356v-7.357z"/><path d="m235.412 511.868v7.357h7.356v-7.357z"/><path d="m323.695 511.868v7.357h7.356v-7.357z"/><path d="m397.266 511.868v7.357h7.356v-7.357z"/><path d="m411.978 511.868v7.357h7.355v-7.357z"/><path d="m485.548 511.868v7.357h7.356v-7.357z"/><path d="m0 526.581v7.357h7.356v-7.357z"/><path d="m29.4238 526.581v7.357h7.356v-7.357z"/><path d="m58.8477 526.581v7.357h7.3559v-7.357z"/><path d="m73.5596 526.581v7.357h7.3559v-7.357z"/><path d="m88.2715 526.581v7.357h7.3559v-7.357z"/><path d="m161.842 526.581v7.357h7.356v-7.357z"/><path d="m294.271 526.581v7.357h7.355v-7.357z"/><path d="m441.401 526.581v7.357h7.356v-7.357z"/><path d="m29.4238 541.305v7.356h7.356v-7.356z"/><path d="m73.5596 541.305v7.356h7.3559v-7.356z"/><path d="m176.554 541.305v7.356h7.356v-7.356z"/><path d="m308.983 541.305v7.356h7.356v-7.356z"/><path d="m353.119 541.305v7.356h7.356v-7.356z"/><path d="m367.842 541.305v7.356h7.356v-7.356z"/><path d="m44.1357 556.018v7.356h7.356v-7.356z"/><path d="m58.8477 556.018v7.356h7.3559v-7.356z"/><path d="m117.706 556.018v7.356h7.356v-7.356z"/><path d="m132.418 556.018v7.356h7.356v-7.356z"/><path d="m147.13 556.018v7.356h7.356v-7.356z"/><path d="m264.836 556.018v7.356h7.356v-7.356z"/><path d="m294.271 556.018v7.356h7.355v-7.356z"/><path d="m323.695 556.018v7.356h7.356v-7.356z"/><path d="m456.124 556.018v7.356h7.356v-7.356z"/><path d="m514.972 556.018v7.356h7.356v-7.356z"/><path d="m14.7119 570.73v7.357h7.356v-7.357z"/><path d="m29.4238 570.73v7.357h7.356v-7.357z"/><path d="m58.8477 570.73v7.357h7.3559v-7.357z"/><path d="m73.5596 570.73v7.357h7.3559v-7.357z"/><path d="m147.13 570.73v7.357h7.356v-7.357z"/><path d="m191.276 570.73v7.357h7.356v-7.357z"/><path d="m367.842 570.73v7.357h7.356v-7.357z"/><path d="m456.124 570.73v7.357h7.356v-7.357z"/><path d="m470.836 570.73v7.357h7.356v-7.357z"/><path d="m544.406 570.73v7.357h7.356v-7.357z"/><path d="m58.8477 585.444v7.357h7.3559v-7.357z"/><path d="m88.2715 585.444v7.357h7.3559v-7.357z"/><path d="m102.994 585.444v7.357h7.356v-7.357z"/><path d="m191.276 585.444v7.357h7.356v-7.357z"/><path d="m220.7 585.444v7.357h7.356v-7.357z"/><path d="m235.412 585.444v7.357h7.356v-7.357z"/><path d="m264.836 585.444v7.357h7.356v-7.357z"/><path d="m323.695 585.444v7.357h7.356v-7.357z"/><path d="m441.401 585.444v7.357h7.356v-7.357z"/><path d="m0 600.157v7.357h7.356v-7.357z"/><path d="m29.4238 600.157v7.357h7.356v-7.357z"/><path d="m44.1357 600.157v7.357h7.356v-7.357z"/><path d="m58.8477 600.157v7.357h7.3559v-7.357z"/><path d="m132.418 600.157v7.357h7.356v-7.357z"/><path d="m147.13 600.157v7.357h7.356v-7.357z"/><path d="m161.842 600.157v7.357h7.356v-7.357z"/><path d="m205.988 600.157v7.357h7.356v-7.357z"/><path d="m353.119 600.157v7.357h7.356v-7.357z"/><path d="m29.4238 614.87v7.357h7.356v-7.357z"/><path d="m58.8477 614.87v7.357h7.3559v-7.357z"/><path d="m102.994 614.87v7.357h7.356v-7.357z"/><path d="m161.842 614.87v7.357h7.356v-7.357z"/><path d="m220.7 614.87v7.357h7.356v-7.357z"/><path d="m235.412 614.87v7.357h7.356v-7.357z"/><path d="m250.124 614.87v7.357h7.356v-7.357z"/><path d="m264.836 614.87v7.357h7.356v-7.357z"/><path d="m279.559 614.87v7.357h7.356v-7.357z"/><path d="m0 629.594v7.356h7.356v-7.356z"/><path d="m44.1357 629.594v7.356h7.356v-7.356z"/><path d="m58.8477 629.594v7.356h7.3559v-7.356z"/><path d="m88.2715 629.594v7.356h7.3559v-7.356z"/><path d="m147.13 629.594v7.356h7.356v-7.356z"/><path d="m176.554 629.594v7.356h7.356v-7.356z"/><path d="m205.988 629.594v7.356h7.356v-7.356z"/><path d="m220.7 629.594v7.356h7.356v-7.356z"/><path d="m235.412 629.594v7.356h7.356v-7.356z"/><path d="m264.836 629.594v7.356h7.356v-7.356z"/><path d="m323.695 629.594v7.356h7.356v-7.356z"/><path d="m353.119 629.594v7.356h7.356v-7.356z"/><path d="m367.842 629.594v7.356h7.356v-7.356z"/><path d="m573.83 629.594v7.356h7.356v-7.356z"/><path d="m0 644.307v7.356h7.356v-7.356z"/><path d="m14.7119 644.307v7.356h7.356v-7.356z"/><path d="m29.4238 644.307v7.356h7.356v-7.356z"/><path d="m44.1357 644.307v7.356h7.356v-7.356z"/><path d="m58.8477 644.307v7.356h7.3559v-7.356z"/><path d="m88.2715 644.307v7.356h7.3559v-7.356z"/><path d="m132.418 644.307v7.356h7.356v-7.356z"/><path d="m176.554 644.307v7.356h7.356v-7.356z"/><path d="m205.988 644.307v7.356h7.356v-7.356z"/><path d="m235.412 644.307v7.356h7.356v-7.356z"/><path d="m308.983 644.307v7.356h7.356v-7.356z"/><path d="m353.119 644.307v7.356h7.356v-7.356z"/><path d="m470.836 644.307v7.356h7.356v-7.356z"/><path d="m14.7119 659.02v7.356h7.356v-7.356z"/><path d="m44.1357 659.02v7.356h7.356v-7.356z"/><path d="m73.5596 659.02v7.356h7.3559v-7.356z"/><path d="m117.706 659.02v7.356h7.356v-7.356z"/><path d="m132.418 659.02v7.356h7.356v-7.356z"/><path d="m205.988 659.02v7.356h7.356v-7.356z"/><path d="m235.412 659.02v7.356h7.356v-7.356z"/><path d="m264.836 659.02v7.356h7.356v-7.356z"/><path d="m456.124 659.02v7.356h7.356v-7.356z"/><path d="m29.4238 673.732v7.357h7.356v-7.357z"/><path d="m58.8477 673.732v7.357h7.3559v-7.357z"/><path d="m88.2715 673.732v7.357h7.3559v-7.357z"/><path d="m102.994 673.732v7.357h7.356v-7.357z"/><path d="m176.554 673.732v7.357h7.356v-7.357z"/><path d="m235.412 673.732v7.357h7.356v-7.357z"/><path d="m250.124 673.732v7.357h7.356v-7.357z"/><path d="m264.836 673.732v7.357h7.356v-7.357z"/><path d="m323.695 673.732v7.357h7.356v-7.357z"/><path d="m353.119 673.732v7.357h7.356v-7.357z"/><path d="m382.554 673.732v7.357h7.356v-7.357z"/><path d="m470.836 673.732v7.357h7.356v-7.357z"/><path d="m29.4238 688.445v7.357h7.356v-7.357z"/><path d="m44.1357 688.445v7.357h7.356v-7.357z"/><path d="m73.5596 688.445v7.357h7.3559v-7.357z"/><path d="m88.2715 688.445v7.357h7.3559v-7.357z"/><path d="m102.994 688.445v7.357h7.356v-7.357z"/><path d="m132.418 688.445v7.357h7.356v-7.357z"/><path d="m147.13 688.445v7.357h7.356v-7.357z"/><path d="m161.842 688.445v7.357h7.356v-7.357z"/><path d="m176.554 688.445v7.357h7.356v-7.357z"/><path d="m205.988 688.445v7.357h7.356v-7.357z"/><path d="m220.7 688.445v7.357h7.356v-7.357z"/><path d="m250.124 688.445v7.357h7.356v-7.357z"/><path d="m264.836 688.445v7.357h7.356v-7.357z"/><path d="m294.271 688.445v7.357h7.355v-7.357z"/><path d="m323.695 688.445v7.357h7.356v-7.357z"/><path d="m353.119 688.445v7.357h7.356v-7.357z"/><path d="m0 703.158v7.357h7.356v-7.357z"/><path d="m29.4238 703.158v7.357h7.356v-7.357z"/><path d="m58.8477 703.158v7.357h7.3559v-7.357z"/><path d="m132.418 703.158v7.357h7.356v-7.357z"/><path d="m456.124 703.158v7.357h7.356v-7.357z"/><path d="m485.548 703.158v7.357h7.356v-7.357z"/><path d="m514.972 703.158v7.357h7.356v-7.357z"/><path d="m559.118 703.158v7.357h7.356v-7.357z"/><path d="m29.4238 717.882v7.356h7.356v-7.356z"/><path d="m73.5596 717.882v7.356h7.3559v-7.356z"/><path d="m88.2715 717.882v7.356h7.3559v-7.356z"/><path d="m132.418 717.882v7.356h7.356v-7.356z"/><path d="m176.554 717.882v7.356h7.356v-7.356z"/><path d="m205.988 717.882v7.356h7.356v-7.356z"/><path d="m264.836 717.882v7.356h7.356v-7.356z"/><path d="m382.554 717.882v7.356h7.356v-7.356z"/><path d="m544.406 717.882v7.356h7.356v-7.356z"/><path d="m559.118 717.882v7.356h7.356v-7.356z"/><path d="m14.7119 732.596v7.356h7.356v-7.356z"/><path d="m29.4238 732.596v7.356h7.356v-7.356z"/><path d="m44.1357 732.596v7.356h7.356v-7.356z"/><path d="m147.13 732.596v7.356h7.356v-7.356z"/><path d="m176.554 732.596v7.356h7.356v-7.356z"/><path d="m205.988 732.596v7.356h7.356v-7.356z"/><path d="m264.836 732.596v7.356h7.356v-7.356z"/><path d="m323.695 732.596v7.356h7.356v-7.356z"/><path d="m338.407 732.596v7.356h7.356v-7.356z"/><path d="m456.124 732.596v7.356h7.356v-7.356z"/><path d="m485.548 732.596v7.356h7.356v-7.356z"/><path d="m544.406 732.596v7.356h7.356v-7.356z"/><path d="m0 747.309v7.356h7.356v-7.356z"/><path d="m14.7119 747.309v7.356h7.356v-7.356z"/><path d="m73.5596 747.309v7.356h7.3559v-7.356z"/><path d="m88.2715 747.309v7.356h7.3559v-7.356z"/><path d="m117.706 747.309v7.356h7.356v-7.356z"/><path d="m161.842 747.309v7.356h7.356v-7.356z"/><path d="m176.554 747.309v7.356h7.356v-7.356z"/><path d="m235.412 747.309v7.356h7.356v-7.356z"/><path d="m250.124 747.309v7.356h7.356v-7.356z"/><path d="m294.271 747.309v7.356h7.355v-7.356z"/><path d="m338.407 747.309v7.356h7.356v-7.356z"/><path d="m353.119 747.309v7.356h7.356v-7.356z"/><path d="m470.836 747.309v7.356h7.356v-7.356z"/><path d="m500.26 747.309v7.356h7.356v-7.356z"/><path d="m44.1357 762.021v7.357h7.356v-7.357z"/><path d="m58.8477 762.021v7.357h7.3559v-7.357z"/><path d="m132.418 762.021v7.357h7.356v-7.357z"/><path d="m205.988 762.021v7.357h7.356v-7.357z"/><path d="m264.836 762.021v7.357h7.356v-7.357z"/><path d="m338.407 762.021v7.357h7.356v-7.357z"/><path d="m367.842 762.021v7.357h7.356v-7.357z"/><path d="m470.836 762.021v7.357h7.356v-7.357z"/><path d="m0 776.734v7.357h7.356v-7.357z"/><path d="m29.4238 776.734v7.357h7.356v-7.357z"/><path d="m44.1357 776.734v7.357h7.356v-7.357z"/><path d="m73.5596 776.734v7.357h7.3559v-7.357z"/><path d="m102.994 776.734v7.357h7.356v-7.357z"/><path d="m147.13 776.734v7.357h7.356v-7.357z"/><path d="m161.842 776.734v7.357h7.356v-7.357z"/><path d="m176.554 776.734v7.357h7.356v-7.357z"/><path d="m205.988 776.734v7.357h7.356v-7.357z"/><path d="m308.983 776.734v7.357h7.356v-7.357z"/><path d="m338.407 776.734v7.357h7.356v-7.357z"/><path d="m353.119 776.734v7.357h7.356v-7.357z"/><path d="m411.978 776.734v7.357h7.355v-7.357z"/><path d="m426.689 776.734v7.357h7.356v-7.357z"/><path d="m500.26 776.734v7.357h7.356v-7.357z"/><path d="m14.7119 791.447v7.357h7.356v-7.357z"/><path d="m44.1357 791.447v7.357h7.356v-7.357z"/><path d="m132.418 791.447v7.357h7.356v-7.357z"/><path d="m161.842 791.447v7.357h7.356v-7.357z"/><path d="m250.124 791.447v7.357h7.356v-7.357z"/><path d="m382.554 791.447v7.357h7.356v-7.357z"/><path d="m426.689 791.447v7.357h7.356v-7.357z"/><path d="m573.83 791.447v7.357h7.356v-7.357z"/><path d="m14.7119 806.171v7.356h7.356v-7.356z"/><path d="m44.1357 806.171v7.356h7.356v-7.356z"/><path d="m58.8477 806.171v7.356h7.3559v-7.356z"/><path d="m73.5596 806.171v7.356h7.3559v-7.356z"/><path d="m88.2715 806.171v7.356h7.3559v-7.356z"/><path d="m117.706 806.171v7.356h7.356v-7.356z"/><path d="m132.418 806.171v7.356h7.356v-7.356z"/><path d="m191.276 806.171v7.356h7.356v-7.356z"/><path d="m220.7 806.171v7.356h7.356v-7.356z"/><path d="m397.266 806.171v7.356h7.356v-7.356z"/><path d="m426.689 806.171v7.356h7.356v-7.356z"/><path d="m544.406 806.171v7.356h7.356v-7.356z"/><path d="m0 820.884v7.356h7.356v-7.356z"/><path d="m14.7119 820.884v7.356h7.356v-7.356z"/><path d="m29.4238 820.884v7.356h7.356v-7.356z"/><path d="m73.5596 820.884v7.356h7.3559v-7.356z"/><path d="m132.418 820.884v7.356h7.356v-7.356z"/><path d="m191.276 820.884v7.356h7.356v-7.356z"/><path d="m264.836 820.884v7.356h7.356v-7.356z"/><path d="m338.407 820.884v7.356h7.356v-7.356z"/><path d="m397.266 820.884v7.356h7.356v-7.356z"/><path d="m426.689 820.884v7.356h7.356v-7.356z"/><path d="m470.836 820.884v7.356h7.356v-7.356z"/><path d="m0 835.597v7.356h7.356v-7.356z"/><path d="m14.7119 835.597v7.356h7.356v-7.356z"/><path d="m29.4238 835.597v7.356h7.356v-7.356z"/><path d="m44.1357 835.597v7.356h7.356v-7.356z"/><path d="m117.706 835.597v7.356h7.356v-7.356z"/><path d="m132.418 835.597v7.356h7.356v-7.356z"/><path d="m147.13 835.597v7.356h7.356v-7.356z"/><path d="m191.276 835.597v7.356h7.356v-7.356z"/><path d="m294.271 835.597v7.356h7.355v-7.356z"/><path d="m323.695 835.597v7.356h7.356v-7.356z"/><path d="m338.407 835.597v7.356h7.356v-7.356z"/><path d="m411.978 835.597v7.356h7.355v-7.356z"/><path d="m14.7119 850.309v7.357h7.356v-7.357z"/><path d="m88.2715 850.309v7.357h7.3559v-7.357z"/><path d="m161.842 850.309v7.357h7.356v-7.357z"/><path d="m176.554 850.309v7.357h7.356v-7.357z"/><path d="m220.7 850.309v7.357h7.356v-7.357z"/><path d="m279.559 850.309v7.357h7.356v-7.357z"/><path d="m308.983 850.309v7.357h7.356v-7.357z"/><path d="m323.695 850.309v7.357h7.356v-7.357z"/><path d="m382.554 850.309v7.357h7.356v-7.357z"/><path d="m0 865.022v7.357h7.356v-7.357z"/><path d="m44.1357 865.022v7.357h7.356v-7.357z"/><path d="m102.994 865.022v7.357h7.356v-7.357z"/><path d="m191.276 865.022v7.357h7.356v-7.357z"/><path d="m220.7 865.022v7.357h7.356v-7.357z"/><path d="m294.271 865.022v7.357h7.355v-7.357z"/><path d="m323.695 865.022v7.357h7.356v-7.357z"/><path d="m353.119 865.022v7.357h7.356v-7.357z"/><path d="m0 879.735v7.357h7.356v-7.357z"/><path d="m14.7119 879.735v7.357h7.356v-7.357z"/><path d="m44.1357 879.735v7.357h7.356v-7.357z"/><path d="m73.5596 879.735v7.357h7.3559v-7.357z"/><path d="m88.2715 879.735v7.357h7.3559v-7.357z"/><path d="m102.994 879.735v7.357h7.356v-7.357z"/><path d="m117.706 879.735v7.357h7.356v-7.357z"/><path d="m132.418 879.735v7.357h7.356v-7.357z"/><path d="m161.842 879.735v7.357h7.356v-7.357z"/><path d="m235.412 879.735v7.357h7.356v-7.357z"/><path d="m294.271 879.735v7.357h7.355v-7.357z"/><path d="m353.119 879.735v7.357h7.356v-7.357z"/><path d="m0 894.459v7.356h7.356v-7.356z"/><path d="m58.8477 894.459v7.356h7.3559v-7.356z"/><path d="m73.5596 894.459v7.356h7.3559v-7.356z"/><path d="m102.994 894.459v7.356h7.356v-7.356z"/><path d="m132.418 894.459v7.356h7.356v-7.356z"/><path d="m176.554 894.459v7.356h7.356v-7.356z"/><path d="m279.559 894.459v7.356h7.356v-7.356z"/><path d="m411.978 894.459v7.356h7.355v-7.356z"/><path d="m441.401 894.459v7.356h7.356v-7.356z"/><path d="m44.1357 909.172v7.356h7.356v-7.356z"/><path d="m58.8477 909.172v7.356h7.3559v-7.356z"/><path d="m88.2715 909.172v7.356h7.3559v-7.356z"/><path d="m132.418 909.172v7.356h7.356v-7.356z"/><path d="m191.276 909.172v7.356h7.356v-7.356z"/><path d="m279.559 909.172v7.356h7.356v-7.356z"/><path d="m294.271 909.172v7.356h7.355v-7.356z"/><path d="m338.407 909.172v7.356h7.356v-7.356z"/><path d="m426.689 909.172v7.356h7.356v-7.356z"/><path d="m500.26 909.172v7.356h7.356v-7.356z"/><path d="m0 923.885v7.356h7.356v-7.356z"/><path d="m14.7119 923.885v7.356h7.356v-7.356z"/><path d="m44.1357 923.885v7.356h7.356v-7.356z"/><path d="m73.5596 923.885v7.356h7.3559v-7.356z"/><path d="m88.2715 923.885v7.356h7.3559v-7.356z"/><path d="m117.706 923.885v7.356h7.356v-7.356z"/><path d="m250.124 923.885v7.356h7.356v-7.356z"/><path d="m323.695 923.885v7.356h7.356v-7.356z"/><path d="m456.124 923.885v7.356h7.356v-7.356z"/><path d="m559.118 923.885v7.356h7.356v-7.356z"/><path d="m14.7119 938.599v7.356h7.356v-7.356z"/><path d="m29.4238 938.599v7.356h7.356v-7.356z"/><path d="m73.5596 938.599v7.356h7.3559v-7.356z"/><path d="m88.2715 938.599v7.356h7.3559v-7.356z"/><path d="m102.994 938.599v7.356h7.356v-7.356z"/><path d="m161.842 938.599v7.356h7.356v-7.356z"/><path d="m205.988 938.599v7.356h7.356v-7.356z"/><path d="m294.271 938.599v7.356h7.355v-7.356z"/><path d="m426.689 938.599v7.356h7.356v-7.356z"/><path d="m529.684 938.599v7.356h7.356v-7.356z"/><path d="m0 953.312v7.356h7.356v-7.356z"/><path d="m58.8477 953.312v7.356h7.3559v-7.356z"/><path d="m88.2715 953.312v7.356h7.3559v-7.356z"/><path d="m117.706 953.312v7.356h7.356v-7.356z"/><path d="m161.842 953.312v7.356h7.356v-7.356z"/><path d="m176.554 953.312v7.356h7.356v-7.356z"/><path d="m264.836 953.312v7.356h7.356v-7.356z"/><path d="m279.559 953.312v7.356h7.356v-7.356z"/><path d="m323.695 953.312v7.356h7.356v-7.356z"/><path d="m0 968.024v7.357h7.356v-7.357z"/><path d="m29.4238 968.024v7.357h7.356v-7.357z"/><path d="m73.5596 968.024v7.357h7.3559v-7.357z"/><path d="m102.994 968.024v7.357h7.356v-7.357z"/><path d="m132.418 968.024v7.357h7.356v-7.357z"/><path d="m161.842 968.024v7.357h7.356v-7.357z"/><path d="m205.988 968.024v7.357h7.356v-7.357z"/><path d="m353.119 968.024v7.357h7.356v-7.357z"/><path d="m426.689 968.024v7.357h7.356v-7.357z"/><path d="m573.83 968.024v7.357h7.356v-7.357z"/><path d="m29.4238 982.748v7.356h7.356v-7.356z"/><path d="m44.1357 982.748v7.356h7.356v-7.356z"/><path d="m102.994 982.748v7.356h7.356v-7.356z"/><path d="m132.418 982.748v7.356h7.356v-7.356z"/><path d="m176.554 982.748v7.356h7.356v-7.356z"/><path d="m279.559 982.748v7.356h7.356v-7.356z"/><path d="m470.836 982.748v7.356h7.356v-7.356z"/><path d="m0 997.461v7.359h7.356v-7.359z"/><path d="m29.4238 997.461v7.359h7.356v-7.359z"/><path d="m73.5596 997.461v7.359h7.3559v-7.359z"/><path d="m88.2715 997.461v7.359h7.3559v-7.359z"/><path d="m102.994 997.461v7.359h7.356v-7.359z"/><path d="m132.418 997.461v7.359h7.356v-7.359z"/><path d="m176.554 997.461v7.359h7.356v-7.359z"/><path d="m191.276 997.461v7.359h7.356v-7.359z"/><path d="m235.412 997.461v7.359h7.356v-7.359z"/><path d="m250.124 997.461v7.359h7.356v-7.359z"/><path d="m338.407 997.461v7.359h7.356v-7.359z"/><path d="m456.124 997.461v7.359h7.356v-7.359z"/><path d="m485.548 997.461v7.359h7.356v-7.359z"/><path d="m0 1012.17v7.36h7.356v-7.36z"/><path d="m14.7119 1012.17v7.36h7.356v-7.36z"/><path d="m29.4238 1012.17v7.36h7.356v-7.36z"/><path d="m58.8477 1012.17v7.36h7.3559v-7.36z"/><path d="m73.5596 1012.17v7.36h7.3559v-7.36z"/><path d="m88.2715 1012.17v7.36h7.3559v-7.36z"/><path d="m102.994 1012.17v7.36h7.356v-7.36z"/><path d="m117.706 1012.17v7.36h7.356v-7.36z"/><path d="m220.7 1012.17v7.36h7.356v-7.36z"/><path d="m264.836 1012.17v7.36h7.356v-7.36z"/><path d="m353.119 1012.17v7.36h7.356v-7.36z"/><path d="m441.401 1012.17v7.36h7.356v-7.36z"/><path d="m456.124 1012.17v7.36h7.356v-7.36z"/><path d="m514.972 1012.17v7.36h7.356v-7.36z"/><path d="m529.684 1012.17v7.36h7.356v-7.36z"/><path d="m544.406 1012.17v7.36h7.356v-7.36z"/><path d="m0 1026.89v7.35h7.356v-7.35z"/><path d="m29.4238 1026.89v7.35h7.356v-7.35z"/><path d="m102.994 1026.89v7.35h7.356v-7.35z"/><path d="m205.988 1026.89v7.35h7.356v-7.35z"/><path d="m220.7 1026.89v7.35h7.356v-7.35z"/><path d="m235.412 1026.89v7.35h7.356v-7.35z"/><path d="m250.124 1026.89v7.35h7.356v-7.35z"/><path d="m264.836 1026.89v7.35h7.356v-7.35z"/><path d="m294.271 1026.89v7.35h7.355v-7.35z"/><path d="m367.842 1026.89v7.35h7.356v-7.35z"/><path d="m0 1041.6v7.36h7.356v-7.36z"/><path d="m29.4238 1041.6v7.36h7.356v-7.36z"/><path d="m44.1357 1041.6v7.36h7.356v-7.36z"/><path d="m58.8477 1041.6v7.36h7.3559v-7.36z"/><path d="m88.2715 1041.6v7.36h7.3559v-7.36z"/><path d="m147.13 1041.6v7.36h7.356v-7.36z"/><path d="m191.276 1041.6v7.36h7.356v-7.36z"/><path d="m308.983 1041.6v7.36h7.356v-7.36z"/><path d="m353.119 1041.6v7.36h7.356v-7.36z"/><path d="m514.972 1041.6v7.36h7.356v-7.36z"/><path d="m573.83 1041.6v7.36h7.356v-7.36z"/><path d="m58.8477 1056.31v7.36h7.3559v-7.36z"/><path d="m73.5596 1056.31v7.36h7.3559v-7.36z"/><path d="m102.994 1056.31v7.36h7.356v-7.36z"/><path d="m132.418 1056.31v7.36h7.356v-7.36z"/><path d="m147.13 1056.31v7.36h7.356v-7.36z"/><path d="m250.124 1056.31v7.36h7.356v-7.36z"/><path d="m294.271 1056.31v7.36h7.355v-7.36z"/><path d="m529.684 1056.31v7.36h7.356v-7.36z"/><path d="m544.406 1056.31v7.36h7.356v-7.36z"/><path d="m29.4238 1071.04v7.35h7.356v-7.35z"/><path d="m191.276 1071.04v7.35h7.356v-7.35z"/><path d="m235.412 1071.04v7.35h7.356v-7.35z"/><path d="m250.124 1071.04v7.35h7.356v-7.35z"/><path d="m294.271 1071.04v7.35h7.355v-7.35z"/><path d="m308.983 1071.04v7.35h7.356v-7.35z"/><path d="m323.695 1071.04v7.35h7.356v-7.35z"/><path d="m559.118 1071.04v7.35h7.356v-7.35z"/><path d="m573.83 1071.04v7.35h7.356v-7.35z"/><path d="m0 1085.75v7.36h7.356v-7.36z"/><path d="m14.7119 1085.75v7.36h7.356v-7.36z"/><path d="m29.4238 1085.75v7.36h7.356v-7.36z"/><path d="m132.418 1085.75v7.36h7.356v-7.36z"/><path d="m235.412 1085.75v7.36h7.356v-7.36z"/><path d="m250.124 1085.75v7.36h7.356v-7.36z"/><path d="m338.407 1085.75v7.36h7.356v-7.36z"/><path d="m382.554 1085.75v7.36h7.356v-7.36z"/><path d="m0 1100.46v7.36h7.356v-7.36z"/><path d="m29.4238 1100.46v7.36h7.356v-7.36z"/><path d="m73.5596 1100.46v7.36h7.3559v-7.36z"/><path d="m147.13 1100.46v7.36h7.356v-7.36z"/><path d="m161.842 1100.46v7.36h7.356v-7.36z"/><path d="m191.276 1100.46v7.36h7.356v-7.36z"/><path d="m220.7 1100.46v7.36h7.356v-7.36z"/><path d="m235.412 1100.46v7.36h7.356v-7.36z"/><path d="m250.124 1100.46v7.36h7.356v-7.36z"/><path d="m308.983 1100.46v7.36h7.356v-7.36z"/><path d="m456.124 1100.46v7.36h7.356v-7.36z"/><path d="m58.8477 0v7.35647h7.3559v-7.35647z"/><path d="m622.5 1175.86h-7.356v7.35h7.356z"/><path d="m622.5 1234.71h-7.356v7.35h7.356z"/><path d="m607.787 1175.86h-7.356v7.35h7.356z"/><path d="m607.787 1190.57h-7.356v7.36h7.356z"/><path d="m607.787 1264.14h-7.356v7.36h7.356z"/><path d="m593.073 1161.14h-7.356v7.35h7.356z"/><path d="m541.567 1271.5h-7.356v7.35h7.356z"/><path d="m534.211 1190.57h-7.357v7.36h7.357z"/><path d="m519.498 1175.86h-7.356v7.35h7.356z"/><path d="m504.785 1190.57h-7.356v7.36h7.356z"/><path d="m475.359 1175.86h-7.356v7.35h7.356z"/><path d="m475.359 1205.28h-7.356v7.36h7.356z"/><path d="m475.359 1234.71h-7.356v7.35h7.356z"/><path d="m475.359 1278.85h-7.356v7.36h7.356z"/><path d="m460.636 1264.14h-7.357v7.36h7.357z"/><path d="m460.636 1278.85h-7.357v7.36h7.357z"/><path d="m445.922 1175.86h-7.357v7.35h7.357z"/><path d="m445.922 1205.28h-7.357v7.36h7.357z"/><path d="m445.922 1264.14h-7.357v7.36h7.357z"/><path d="m431.209 1190.57h-7.356v7.36h7.356z"/><path d="m431.209 1219.99h-7.356v7.36h7.356z"/><path d="m416.496 1190.57h-7.356v7.36h7.356z"/><path d="m401.783 1131.71h-7.356v7.36h7.356z"/><path d="m401.783 1146.42h-7.356v7.36h7.356z"/><path d="m401.783 1219.99h-7.356v7.36h7.356z"/><path d="m387.07 1146.42h-7.356v7.36h7.356z"/><path d="m387.07 1293.56h-7.356v7.36h7.356z"/><path d="m372.347 1117h-7.357v7.36h7.357z"/><path d="m372.347 1146.42h-7.357v7.36h7.357z"/><path d="m372.347 1264.14h-7.357v7.36h7.357z"/><path d="m357.634 1117h-7.357v7.36h7.357z"/><path d="m357.634 1146.42h-7.357v7.36h7.357z"/><path d="m357.634 1190.57h-7.357v7.36h7.357z"/><path d="m342.921 1131.71h-7.357v7.36h7.357z"/><path d="m284.059 1131.71h-7.357v7.36h7.357z"/><path d="m284.059 1161.14h-7.357v7.35h7.357z"/><path d="m269.346 1146.42h-7.357v7.36h7.357z"/><path d="m448.758 1334.29h-7.357v7.35h7.357z"/><path d="m254.633 1175.86h-7.357v7.35h7.357z"/><path d="m318 1341.64h-7.356v7.36h7.356z"/><path d="m239.919 1146.42h-7.357v7.36h7.357z"/><path d="m242 1308.64h-7.356v7.36h7.356z"/><path d="m210.493 1146.42h-7.356v7.36h7.356z"/><path d="m175.5 1370.64h-7.356v7.36h7.356z"/><path d="m195.77 1190.57h-7.357v7.36h7.357z"/><path d="m44.1357 1205.29h-7.3565v7.36h7.3565z"/><path d="m181.057 1205.28h-7.357v7.36h7.357z"/><path d="m29.4227 1190.57h-7.3564v7.36h7.3564z"/><path d="m29.4227 1205.29h-7.3564v7.36h7.3564z"/><path d="m166.344 1234.71h-7.357v7.35h7.357z"/><path d="m166.344 1249.42h-7.357v7.35h7.357z"/><path d="m166.344 1264.14h-7.357v7.36h7.357z"/><path d="m136.918 1234.71h-7.356v7.35h7.356z"/><path d="m136.918 1293.56h-7.356v7.36h7.356z"/><path d="m122.205 1249.42h-7.356v7.35h7.356z"/><path d="m122.205 1264.14h-7.356v7.36h7.356z"/><path d="m107.481 1278.85h-7.356v7.36h7.356z"/><path d="m107.481 1293.56h-7.356v7.36h7.356z"/><path d="m14.7124 1264.14h-7.3564v7.36h7.3564z"/><path d="m95.6274 1153.78v7.36h7.3556v-7.36z"/><path d="m110.339 1168.49v7.36h7.356v-7.36z"/><path d="m125.051 1168.49v7.36h7.356v-7.36z"/><path d="m58.8481 1293.56h-7.3564v7.36h7.3564z"/><path d="m7.356 1146.42v7.36h7.356v-7.36z"/><path d="m22.0679 1161.14v7.35h7.356v-7.35z"/><path d="m36.7798 1161.14v7.35h7.356v-7.35z"/><path d="m541.567 1308.64h-7.356v7.36h7.356z"/><path d="m264.836 1370.64h-7.357v7.36h7.357z"/></g></svg>