<svg width="257" height="118" viewBox="0 0 257 118" fill="none" xmlns="http://www.w3.org/2000/svg">
<g clip-path="url(#clip0_1089_19437)">
<path d="M164.742 111.143C163.975 111.143 163.285 110.971 162.674 110.626C162.062 110.271 161.578 109.759 161.222 109.092C160.867 108.425 160.689 107.618 160.689 106.673C160.689 105.717 160.867 104.911 161.222 104.255C161.589 103.587 162.079 103.081 162.69 102.737C163.302 102.392 163.986 102.22 164.742 102.22C165.576 102.22 166.321 102.409 166.977 102.787C167.644 103.154 168.167 103.671 168.545 104.338C168.923 105.005 169.112 105.784 169.112 106.673C169.112 107.552 168.923 108.33 168.545 109.008C168.167 109.676 167.644 110.198 166.977 110.576C166.321 110.954 165.576 111.143 164.742 111.143ZM160.222 111.06V98.6835H161.406V104.888L161.239 106.657L161.356 108.425V111.06H160.222ZM164.659 110.093C165.281 110.093 165.837 109.954 166.327 109.676C166.816 109.386 167.205 108.986 167.494 108.475C167.783 107.952 167.928 107.352 167.928 106.673C167.928 105.984 167.783 105.383 167.494 104.872C167.205 104.36 166.816 103.965 166.327 103.687C165.837 103.398 165.281 103.254 164.659 103.254C164.036 103.254 163.474 103.398 162.974 103.687C162.485 103.965 162.095 104.36 161.806 104.872C161.528 105.383 161.389 105.984 161.389 106.673C161.389 107.352 161.528 107.952 161.806 108.475C162.095 108.986 162.485 109.386 162.974 109.676C163.474 109.954 164.036 110.093 164.659 110.093ZM171.349 114.379C170.937 114.379 170.542 114.313 170.164 114.179C169.797 114.046 169.48 113.846 169.214 113.579L169.764 112.695C169.986 112.906 170.226 113.067 170.481 113.178C170.748 113.301 171.043 113.362 171.365 113.362C171.755 113.362 172.088 113.251 172.366 113.028C172.655 112.817 172.928 112.439 173.183 111.894L173.751 110.61L173.884 110.426L177.487 102.303H178.654L174.268 112.111C174.023 112.678 173.751 113.128 173.45 113.462C173.161 113.796 172.844 114.029 172.5 114.163C172.155 114.307 171.771 114.379 171.349 114.379ZM173.684 111.31L169.647 102.303H170.882L174.451 110.343L173.684 111.31Z" fill="#fff"/>
<path d="M211.6 111.66H207.96V93.13H211.6V111.66Z" fill="#fff"/>
<path d="M236.08 111.89C235.375 111.921 234.674 111.782 234.034 111.487C233.393 111.191 232.833 110.746 232.4 110.19H232.21C232.33 111.3 232.4 111.94 232.4 112.12V117.51H228.76V98.35H231.6L232.25 100.07H232.42C232.811 99.4287 233.367 98.9045 234.031 98.5526C234.694 98.2007 235.44 98.034 236.19 98.07C236.908 98.0417 237.622 98.1934 238.266 98.5113C238.911 98.8291 239.465 99.3031 239.88 99.89C240.854 101.391 241.323 103.164 241.22 104.95C241.248 106.212 241.035 107.468 240.59 108.65C240.246 109.608 239.627 110.443 238.81 111.05C238.014 111.617 237.057 111.912 236.08 111.89ZM235 100.99C234.624 100.953 234.245 101.009 233.896 101.154C233.547 101.298 233.239 101.527 233 101.82C232.515 102.644 232.292 103.596 232.36 104.55V104.95C232.277 106.012 232.496 107.076 232.99 108.02C233.218 108.332 233.52 108.58 233.87 108.743C234.22 108.906 234.605 108.977 234.99 108.95C236.617 108.95 237.43 107.617 237.43 104.95C237.494 103.931 237.287 102.913 236.83 102C236.642 101.686 236.373 101.427 236.051 101.251C235.729 101.076 235.366 100.989 235 101V100.99Z" fill="#fff"/>
<path d="M255.49 111.66H251.86V103.89C251.86 101.97 251.14 101.01 249.71 101.01C249.288 100.971 248.863 101.043 248.477 101.219C248.092 101.394 247.758 101.667 247.51 102.01C246.98 103.046 246.744 104.209 246.83 105.37V111.63H243.2V93.13H246.83V96.89C246.83 97.19 246.83 97.89 246.75 98.97L246.66 100.04H246.86C247.264 99.3963 247.836 98.8747 248.515 98.5312C249.193 98.1877 249.952 98.0352 250.71 98.09C251.358 98.0425 252.009 98.1299 252.622 98.3467C253.235 98.5636 253.796 98.9053 254.27 99.35C255.14 100.348 255.578 101.649 255.49 102.97V111.66Z" fill="#fff"/>
<path d="M193.4 104.06C192.704 103.908 191.99 103.861 191.28 103.92C190.463 103.863 189.642 103.887 188.83 103.99C188.374 104.142 187.963 104.404 187.634 104.753C187.304 105.101 187.066 105.527 186.94 105.99C186.53 107.16 186.51 108.46 186.11 109.63C185.956 110.092 185.719 110.523 185.41 110.9C185.248 111.099 185.06 111.274 184.85 111.42C184.56 111.62 183.93 111.69 184.85 111.67H187.69H187.45C186.808 111.605 186.162 111.605 185.52 111.67H184.15C183.961 111.695 183.769 111.695 183.58 111.67C184.321 111.783 185.072 111.817 185.82 111.77C186.591 111.835 187.367 111.805 188.13 111.68C188.567 111.511 188.958 111.242 189.272 110.895C189.587 110.548 189.815 110.132 189.94 109.68C190.33 108.55 190.37 107.29 190.74 106.14C191.02 105.27 191.74 104.05 192.66 104.01H189.13C189.261 104.012 189.39 104.039 189.51 104.09C190.15 104.18 190.8 104.18 191.44 104.09H192.81C192.996 104.061 193.184 104.061 193.37 104.09L193.4 104.06Z" fill="#fff"/>
<path d="M200.14 111.68H205.18L195.82 86.46H195.45L193.09 92.88L200.14 111.68Z" fill="#fff"/>
<path d="M224.67 108.53C224.231 108.694 223.784 108.835 223.33 108.95C222.585 109.117 221.823 109.201 221.06 109.2C220.62 109.226 220.179 109.163 219.765 109.013C219.351 108.864 218.971 108.631 218.65 108.33C218.049 107.668 217.724 106.803 217.74 105.91H226.32V104.15C226.367 103.341 226.252 102.531 225.982 101.767C225.713 101.003 225.294 100.3 224.75 99.7C224.167 99.1464 223.476 98.7187 222.721 98.4435C221.966 98.1682 221.162 98.0513 220.36 98.1C219.503 98.0546 218.646 98.1935 217.847 98.5075C217.048 98.8215 216.326 99.3031 215.73 99.92C214.534 101.371 213.937 103.224 214.06 105.1C214.003 106.013 214.134 106.928 214.446 107.788C214.757 108.648 215.242 109.435 215.87 110.1C216.542 110.715 217.331 111.19 218.19 111.495C219.048 111.801 219.96 111.932 220.87 111.88C221.758 111.892 222.646 111.815 223.52 111.65C224.213 111.497 224.885 111.259 225.52 110.94L224.67 108.53ZM218.57 101.41C218.799 101.163 219.081 100.97 219.393 100.843C219.706 100.717 220.043 100.661 220.38 100.68C220.719 100.663 221.059 100.719 221.374 100.845C221.69 100.971 221.975 101.164 222.21 101.41C222.701 101.989 222.955 102.732 222.92 103.49H217.82C217.835 102.728 218.111 101.994 218.6 101.41H218.57Z" fill="#fff"/>
<path d="M42.97 11.56L45.6 0H57.39L46.56 40.15H33.89L31.41 28.25C30.2433 22.5833 29.34 17.6967 28.7 13.59C27.99 18.03 27.06 22.92 25.94 28.25L23.46 40.15H10.8199L0 0H11.78L14.38 11.56C16.0267 18.8933 17.1533 24.25 17.7599 27.63C18.6199 22.37 19.6199 17.0133 20.7599 11.56L23.13 0H34.24L36.6 11.56C37.7266 17.0133 38.7266 22.37 39.6 27.63C40.2266 24.25 41.35 18.8933 42.97 11.56Z" fill="#fff"/>
<path d="M67.9996 40.15H57.5996V11.05H67.9996V40.15ZM67.7196 8.15002H57.9696V0.0300293H67.7196V8.15002Z" fill="#fff"/>
<path d="M84.36 41.05C79.4667 41.05 75.8667 40.2633 73.56 38.69C71.2533 37.1166 69.9666 34.5167 69.7 30.89H79.7C79.7141 31.4193 79.8399 31.9397 80.0691 32.417C80.2983 32.8944 80.6257 33.318 81.03 33.66C82.0988 34.267 83.3242 34.542 84.55 34.45C87.3 34.45 88.67 33.71 88.67 32.25C88.6738 31.9064 88.5824 31.5685 88.4059 31.2737C88.2294 30.9789 87.9746 30.7388 87.67 30.58C86.5906 30.0481 85.4263 29.7096 84.23 29.58L80.06 28.96C73.3267 27.98 69.96 24.9533 69.96 19.88C69.8974 18.4916 70.194 17.1106 70.8212 15.8703C71.4483 14.6301 72.3847 13.5726 73.54 12.8C75.9333 11.16 79.4033 10.3433 83.95 10.35C92.97 10.35 97.6866 13.7133 98.1 20.44H88.6C88.5333 18.1066 86.9933 16.94 83.98 16.94C81.42 16.94 80.14 17.68 80.14 19.14C80.1266 19.4452 80.1957 19.7483 80.34 20.0176C80.4843 20.2868 80.6984 20.5122 80.96 20.67C81.8323 21.1056 82.7788 21.3736 83.75 21.46L88.75 22.13C92.24 22.62 94.83 23.62 96.5 25.13C97.3999 26.0455 98.0875 27.1477 98.5142 28.3584C98.941 29.5692 99.0964 30.8589 98.9695 32.1363C98.8427 33.4138 98.4366 34.6478 97.78 35.7509C97.1234 36.854 96.2324 37.7994 95.17 38.52C92.6233 40.2133 89.02 41.0566 84.36 41.05Z" fill="#fff"/>
<path d="M130.77 26.73V28.5899H109.449C110.129 31.8599 112.059 33.4999 115.259 33.4999C117.659 33.4999 119.379 32.6499 120.389 30.9599H130.09C129.372 33.9804 127.488 36.594 124.85 38.23C121.969 39.9992 118.639 40.9018 115.259 40.8299C113.188 40.9177 111.119 40.5944 109.173 39.8787C107.226 39.163 105.441 38.0691 103.92 36.66C102.468 35.2197 101.334 33.4916 100.59 31.5869C99.8457 29.6821 99.5084 27.6428 99.5995 25.6C99.5995 20.98 101.029 17.2966 103.889 14.5499C106.749 11.7699 110.5 10.3799 115.17 10.3799C117.254 10.292 119.335 10.6316 121.283 11.378C123.232 12.1244 125.007 13.2617 126.5 14.72C129.346 17.6133 130.77 21.6166 130.77 26.73ZM115.03 17.73C111.95 17.73 110.089 19.3066 109.449 22.4599H120.79C120.11 19.2999 118.19 17.7166 115.03 17.7099V17.73Z" fill="#fff"/>
<path d="M143.68 40.15H132.18V28.99H143.68V40.15Z" fill="#fff"/>
<path d="M164.94 10.38C166.67 10.3067 168.392 10.6404 169.969 11.3542C171.546 12.0681 172.934 13.1421 174.02 14.49C176.24 17.2433 177.35 20.9467 177.35 25.6C177.35 30.2534 176.24 33.9567 174.02 36.71C172.938 38.0634 171.552 39.1419 169.974 39.8579C168.396 40.5739 166.671 40.907 164.94 40.83C163.292 40.9229 161.65 40.5743 160.182 39.8201C158.714 39.066 157.474 37.9336 156.59 36.54V40.15H146.5V0H156.88V14.21C157.802 12.9545 159.02 11.9473 160.427 11.2788C161.834 10.6104 163.385 10.3015 164.94 10.38ZM161.84 18.5C158.447 18.5 156.753 20.8667 156.76 25.6C156.767 30.3334 158.46 32.7034 161.84 32.71C165.22 32.71 166.91 30.2667 166.91 25.38C166.91 20.7933 165.22 18.5 161.84 18.5Z" fill="#fff"/>
<path d="M189.98 40.15H179.6V0H189.98V40.15Z" fill="#fff"/>
<path d="M212.25 27.1799V11.0499H222.6V40.15H212.48V36.3199C211.44 37.7448 210.071 38.8985 208.491 39.6834C206.911 40.4684 205.165 40.8616 203.4 40.83C202.055 40.8872 200.713 40.6633 199.46 40.1726C198.206 39.6819 197.069 38.9351 196.12 37.98C194.28 36.08 193.36 33.3833 193.36 29.89V11.0499H203.74V27.6899C203.74 30.5833 205.054 32.03 207.68 32.03C208.283 32.0503 208.883 31.9482 209.445 31.7299C210.007 31.5116 210.519 31.1817 210.95 30.7599C211.402 30.2852 211.751 29.7221 211.975 29.106C212.199 28.4898 212.292 27.8341 212.25 27.1799Z" fill="#fff"/>
<path d="M256.07 26.73V28.59H234.75C235.43 31.86 237.36 33.5 240.56 33.5C242.973 33.5 244.683 32.6533 245.69 30.96H255.39C254.672 33.9804 252.789 36.5941 250.15 38.23C247.269 39.9993 243.94 40.9018 240.56 40.83C235.893 40.83 232.117 39.44 229.23 36.66C227.772 35.2235 226.631 33.4967 225.881 31.5916C225.132 29.6864 224.791 27.6453 224.88 25.6C224.88 20.98 226.31 17.2966 229.17 14.55C232.03 11.8033 235.79 10.4133 240.45 10.38C242.535 10.292 244.615 10.6317 246.564 11.3781C248.512 12.1245 250.288 13.2618 251.78 14.72C254.64 17.6133 256.07 21.6167 256.07 26.73ZM240.33 17.73C237.25 17.73 235.39 19.3067 234.75 22.46H246.09C245.41 19.3 243.49 17.7167 240.33 17.71V17.73Z" fill="#fff"/>
<path d="M31.41 48.79L33.89 60.79H46.52L51.2599 43H40.6C40.18 45 39.84 46.75 39.6 48.13C39.33 46.43 39.03 44.72 38.73 43H30.3C30.6267 44.84 30.9966 46.77 31.41 48.79Z" fill="#fff"/>
<path d="M10.8199 60.82H23.46L25.94 48.82C26.35 46.82 26.73 44.92 27.09 43.06H18.6C18.3 44.78 18.01 46.49 17.73 48.19C17.49 46.81 17.15 45.09 16.73 43.06H6.07996L10.8199 60.82Z" fill="#fff"/>
<path d="M68.01 43.03H57.63V60.82H68.01V43.03Z" fill="#fff"/>
<path d="M80.1296 49.53L84.2996 50.16C85.4973 50.2823 86.6629 50.6211 87.7396 51.16C88.0458 51.3222 88.3013 51.5658 88.4777 51.8641C88.6542 52.1623 88.7448 52.5035 88.7396 52.85C88.7396 54.33 87.3662 55.07 84.6196 55.07C83.3924 55.1646 82.1653 54.8857 81.0995 54.27C80.6943 53.9245 80.3664 53.4974 80.1372 53.0167C79.908 52.536 79.7828 52.0124 79.7695 51.48H69.7695C70.0295 55.1334 71.3162 57.7534 73.6296 59.34C75.9429 60.9267 79.5429 61.7267 84.4296 61.74C89.0962 61.74 92.7029 60.8933 95.2496 59.2C96.314 58.4632 97.2052 57.5035 97.8614 56.3876C98.5176 55.2717 98.9231 54.0263 99.0496 52.738C99.1762 51.4496 99.0208 50.1491 98.5942 48.9269C98.1677 47.7046 97.4802 46.5899 96.5795 45.66C94.9616 44.3256 93.0313 43.4241 90.9695 43.04H70.3895C71.4229 46.56 74.6696 48.7234 80.1296 49.53Z" fill="#fff"/>
<path d="M99.6 46.11C99.6 50.7767 101.047 54.5 103.94 57.28C105.453 58.7046 107.236 59.8119 109.183 60.5366C111.131 61.2614 113.204 61.5889 115.28 61.5C118.663 61.5744 121.995 60.6642 124.87 58.88C127.516 57.2101 129.398 54.5663 130.11 51.52H120.41C119.41 53.23 117.68 54.09 115.28 54.09C112.08 54.09 110.15 52.44 109.47 49.09H130.79V47.21C130.792 45.7947 130.664 44.3822 130.41 42.99H99.8199C99.6662 44.0228 99.5927 45.0659 99.6 46.11Z" fill="#fff"/>
<path d="M143.68 49.53H132.18V60.82H143.68V49.53Z" fill="#fff"/>
<path d="M146.5 43.03V60.82H156.6V57.17C157.477 58.5733 158.714 59.7153 160.183 60.477C161.652 61.2387 163.298 61.592 164.95 61.5C166.684 61.5722 168.411 61.233 169.989 60.5099C171.567 59.7869 172.952 58.7007 174.03 57.34C176.25 54.5667 177.36 50.8233 177.36 46.11C177.36 45.0804 177.296 44.0519 177.17 43.03H166.6C166.791 43.9677 166.882 44.9231 166.87 45.88C166.87 50.82 165.18 53.29 161.8 53.29C158.42 53.29 156.727 50.8967 156.72 46.11C156.709 45.075 156.813 44.0421 157.03 43.03H146.5Z" fill="#fff"/>
<path d="M189.98 43.03H179.6V60.82H189.98V43.03Z" fill="#fff"/>
<path d="M193.36 43.03V50.44C193.36 53.98 194.28 56.7 196.12 58.62C197.064 59.5836 198.2 60.3379 199.454 60.8341C200.708 61.3303 202.053 61.5571 203.4 61.5C205.17 61.5319 206.921 61.1335 208.502 60.3392C210.084 59.5449 211.449 58.3784 212.48 56.94V60.82H222.6V43.03H212.25V47.7C212.293 48.3603 212.2 49.0223 211.976 49.645C211.753 50.2677 211.403 50.8378 210.95 51.32C210.522 51.7468 210.011 52.0814 209.449 52.3032C208.886 52.5251 208.285 52.6295 207.68 52.61C205.05 52.61 203.74 51.14 203.74 48.22V43.03H193.36Z" fill="#fff"/>
<path d="M224.88 46.11C224.88 50.7767 226.33 54.5 229.23 57.28C232.13 60.06 235.92 61.4667 240.6 61.5C243.983 61.5744 247.315 60.6642 250.19 58.88C252.836 57.2101 254.718 54.5663 255.43 51.52H245.73C244.723 53.2334 243.013 54.09 240.6 54.09C237.4 54.09 235.47 52.44 234.79 49.09H256.11V47.21C256.112 45.7947 255.984 44.3822 255.73 42.99H225.12C224.96 44.0222 224.879 45.0654 224.88 46.11Z" fill="#fff"/>
<path d="M7.83002 63.74L10.83 74.87H23.46L25.78 63.74H7.83002Z" fill="#fff"/>
<path d="M49.5203 63.74H31.5703L33.8903 74.87H46.5203L49.5203 63.74Z" fill="#fff"/>
<path d="M68.01 63.74H57.63V74.87H68.01V63.74Z" fill="#fff"/>
<path d="M88.7004 66.33C88.7004 67.91 87.3304 68.6899 84.5804 68.6899C83.3478 68.7897 82.1153 68.4956 81.0605 67.85C80.6465 67.4666 80.315 67.0028 80.0864 66.487C79.8577 65.9712 79.7366 65.4142 79.7305 64.85H69.7305C69.9905 68.7233 71.2771 71.5066 73.5905 73.2C75.9038 74.8933 79.5038 75.7433 84.3904 75.7499C89.0571 75.7499 92.6638 74.8499 95.2104 73.0499C96.4502 72.2061 97.4537 71.0595 98.1257 69.7189C98.7978 68.3783 99.1161 66.8882 99.0505 65.39C99.0471 64.8279 99.0071 64.2667 98.9305 63.71H85.6005C86.368 63.8535 87.1054 64.1275 87.7805 64.52C88.0814 64.7121 88.3255 64.9812 88.4872 65.2995C88.649 65.6178 88.7226 65.9736 88.7004 66.33Z" fill="#fff"/>
<path d="M103.92 71.38C105.441 72.7891 107.226 73.8831 109.173 74.5988C111.119 75.3145 113.188 75.6378 115.26 75.55C118.639 75.6248 121.968 74.7257 124.85 72.96C127.487 71.3177 129.369 68.7018 130.09 65.68H120.39C119.39 67.37 117.66 68.22 115.26 68.22C113.923 68.3201 112.597 67.9156 111.544 67.0863C110.49 66.257 109.786 65.063 109.57 63.74H99.8896C100.382 66.6518 101.795 69.3293 103.92 71.38Z" fill="#fff"/>
<path d="M143.68 63.74H132.18V74.87H143.68V63.74Z" fill="#fff"/>
<path d="M146.5 74.89H156.6V71.28C157.484 72.6736 158.724 73.806 160.192 74.5601C161.66 75.3143 163.302 75.6629 164.95 75.57C166.681 75.6469 168.406 75.3139 169.984 74.5979C171.561 73.8819 172.948 72.8034 174.03 71.45C175.754 69.2222 176.827 66.5604 177.13 63.76H166.48C165.78 66.22 164.24 67.45 161.84 67.45C160.744 67.5156 159.663 67.1758 158.802 66.4953C157.94 65.8148 157.36 64.8412 157.17 63.76H146.5V74.89Z" fill="#fff"/>
<path d="M189.98 63.74H179.6V74.87H189.98V63.74Z" fill="#fff"/>
<path d="M193.36 64.61C193.36 68.11 194.28 70.8 196.12 72.7C197.069 73.6551 198.206 74.4019 199.46 74.8926C200.713 75.3834 202.055 75.6072 203.4 75.55C205.165 75.5816 206.911 75.1884 208.491 74.4034C210.071 73.6185 211.44 72.4649 212.48 71.04V74.89H222.6V63.74H211.98C211.8 64.3955 211.456 64.9944 210.98 65.48C210.549 65.9018 210.038 66.2317 209.475 66.45C208.913 66.6683 208.313 66.7703 207.71 66.75C205.53 66.75 204.26 65.75 203.89 63.75H193.39L193.36 64.61Z" fill="#fff"/>
<path d="M229.23 71.38C232.117 74.16 235.894 75.55 240.56 75.55C243.939 75.6248 247.269 74.7257 250.15 72.96C252.787 71.3177 254.67 68.7018 255.39 65.68H245.69C244.684 67.3733 242.974 68.22 240.56 68.22C239.224 68.3201 237.898 67.9156 236.844 67.0863C235.791 66.257 235.087 65.063 234.87 63.74H225.19C225.682 66.6542 227.099 69.3329 229.23 71.38Z" fill="#fff"/>
</g>
<defs>
<clipPath id="clip0_1089_19437">
<rect width="256.07" height="117.52" fill="white"/>
</clipPath>
</defs>
</svg>
