<svg width="221" height="46" viewBox="0 0 221 46" fill="none" xmlns="http://www.w3.org/2000/svg">
<mask id="mask0_44_105" style="mask-type:luminance" maskUnits="userSpaceOnUse" x="0" y="0" width="96" height="46">
<path d="M96 0H0V46H96V0Z" fill="white"/>
</mask>
<g mask="url(#mask0_44_105)">
<path d="M61.7614 43.5039C61.4739 43.5039 61.2152 43.4366 60.9861 43.3015C60.7567 43.1626 60.5753 42.9622 60.4418 42.7011C60.3087 42.44 60.242 42.1241 60.242 41.7542C60.242 41.38 60.3087 41.0645 60.4418 40.8078C60.5794 40.5463 60.7631 40.3482 60.9921 40.2136C61.2216 40.0785 61.478 40.0112 61.7614 40.0112C62.0741 40.0112 62.3534 40.0852 62.5993 40.2332C62.8494 40.3768 63.0455 40.5792 63.1872 40.8403C63.3289 41.1013 63.3997 41.4062 63.3997 41.7542C63.3997 42.0983 63.3289 42.4028 63.1872 42.6682C63.0455 42.9297 62.8494 43.134 62.5993 43.2819C62.3534 43.4299 62.0741 43.5039 61.7614 43.5039ZM60.0669 43.4714V38.627H60.5108V41.0555L60.4482 41.748L60.492 42.44V43.4714H60.0669ZM61.7303 43.0929C61.9635 43.0929 62.1719 43.0385 62.3556 42.9297C62.539 42.8162 62.6848 42.6596 62.7931 42.4596C62.9015 42.2549 62.9559 42.02 62.9559 41.7542C62.9559 41.4845 62.9015 41.2493 62.7931 41.0493C62.6848 40.8489 62.539 40.6943 62.3556 40.5854C62.1719 40.4723 61.9635 40.4159 61.7303 40.4159C61.4968 40.4159 61.2861 40.4723 61.0986 40.5854C60.9153 40.6943 60.7691 40.8489 60.6607 41.0493C60.5565 41.2493 60.5044 41.4845 60.5044 41.7542C60.5044 42.02 60.5565 42.2549 60.6607 42.4596C60.7691 42.6596 60.9153 42.8162 61.0986 42.9297C61.2861 43.0385 61.4968 43.0929 61.7303 43.0929ZM64.2384 44.7705C64.0839 44.7705 63.9358 44.7447 63.7941 44.6922C63.6565 44.6402 63.5377 44.5619 63.438 44.4574L63.6442 44.1114C63.7274 44.194 63.8174 44.257 63.913 44.3004C64.0131 44.3486 64.1237 44.3725 64.2444 44.3725C64.3906 44.3725 64.5154 44.329 64.6196 44.2417C64.728 44.1591 64.8303 44.0112 64.9259 43.7978L65.1389 43.2953L65.1887 43.2232L66.5395 40.0437H66.977L65.3327 43.8828C65.2409 44.1047 65.1389 44.2809 65.026 44.4116C64.9177 44.5423 64.7989 44.6335 64.6699 44.686C64.5405 44.7423 64.3966 44.7705 64.2384 44.7705ZM65.1138 43.5693L63.6003 40.0437H64.0633L65.4013 43.1907L65.1138 43.5693Z" fill="white"/>
<path d="M79.3285 43.7063H77.9639V36.4532H79.3285V43.7063Z" fill="white"/>
<path d="M88.5055 43.7963C88.2412 43.8084 87.9784 43.754 87.7384 43.6385C87.4981 43.5227 87.2882 43.3485 87.1259 43.1309H87.0546C87.0996 43.5654 87.1259 43.8159 87.1259 43.8863V45.9961H85.7612V38.4964H86.8259L87.0696 39.1697H87.1334C87.2799 38.9187 87.4884 38.7135 87.7373 38.5757C87.9859 38.438 88.2655 38.3727 88.5467 38.3868C88.8159 38.3758 89.0836 38.4351 89.325 38.5596C89.5668 38.684 89.7745 38.8695 89.9301 39.0992C90.2952 39.6867 90.4711 40.3807 90.4325 41.0798C90.443 41.5738 90.3631 42.0654 90.1963 42.5281C90.0673 42.9031 89.8352 43.2299 89.529 43.4675C89.2305 43.6894 88.8718 43.8049 88.5055 43.7963ZM88.1006 39.5298C87.9596 39.5153 87.8175 39.5372 87.6867 39.594C87.5559 39.6503 87.4404 39.74 87.3508 39.8547C87.169 40.1772 87.0854 40.5498 87.1109 40.9233V41.0798C87.0797 41.4955 87.1619 41.912 87.3471 42.2815C87.4325 42.4036 87.5457 42.5007 87.677 42.5645C87.8082 42.6283 87.9525 42.6561 88.0968 42.6455C88.7068 42.6455 89.0116 42.1237 89.0116 41.0798C89.0356 40.681 88.958 40.2825 88.7867 39.9251C88.7162 39.8022 88.6153 39.7008 88.4946 39.6319C88.3739 39.5634 88.2378 39.5294 88.1006 39.5337V39.5298Z" fill="white"/>
<path d="M95.7828 43.7063H94.4219V40.6649C94.4219 39.9134 94.152 39.5376 93.6159 39.5376C93.4577 39.5224 93.2983 39.5505 93.1536 39.6194C93.0093 39.6879 92.8841 39.7948 92.7911 39.9291C92.5924 40.3346 92.5039 40.7898 92.5362 41.2442V43.6945H91.1753V36.4532H92.5362V37.925C92.5362 38.0424 92.5362 38.3164 92.5062 38.7391L92.4724 39.1579H92.5474C92.6989 38.906 92.9133 38.7018 93.1679 38.5674C93.4221 38.4329 93.7066 38.3732 93.9908 38.3947C94.2337 38.3761 94.4778 38.4103 94.7076 38.4952C94.9374 38.5801 95.1477 38.7138 95.3254 38.8879C95.6516 39.2785 95.8158 39.7877 95.7828 40.3048V43.7063Z" fill="white"/>
<path d="M72.5052 40.7314C72.2443 40.672 71.9766 40.6536 71.7104 40.6767C71.4041 40.6543 71.0964 40.6637 70.7919 40.704C70.621 40.7635 70.4669 40.8661 70.3436 41.0027C70.2198 41.1389 70.1306 41.3057 70.0834 41.4869C69.9297 41.9449 69.9222 42.4537 69.7722 42.9117C69.7145 43.0925 69.6256 43.2612 69.5098 43.4088C69.4491 43.4867 69.3786 43.5552 69.2999 43.6123C69.1911 43.6906 68.9549 43.718 69.2999 43.7102H70.3646H70.2746C70.0339 43.6847 69.7917 43.6847 69.551 43.7102H69.0374C68.9666 43.72 68.8946 43.72 68.8237 43.7102C69.1015 43.7544 69.3831 43.7677 69.6635 43.7493C69.9525 43.7748 70.2435 43.763 70.5295 43.7141C70.6933 43.6479 70.8399 43.5426 70.9576 43.4068C71.0757 43.271 71.1612 43.1082 71.2081 42.9312C71.3543 42.4889 71.3693 41.9957 71.508 41.5456C71.613 41.2051 71.8829 40.7275 72.2278 40.7119H70.9044C70.9535 40.7127 71.0019 40.7232 71.0469 40.7432C71.2868 40.7784 71.5305 40.7784 71.7704 40.7432H72.284C72.3538 40.7318 72.4242 40.7318 72.494 40.7432L72.5052 40.7314Z" fill="white"/>
<path d="M75.0322 43.7141H76.9217L73.4126 33.8424H73.2739L72.3892 36.3554L75.0322 43.7141Z" fill="white"/>
<path d="M84.2287 42.4811C84.0641 42.5453 83.8966 42.6005 83.7264 42.6455C83.4471 42.7109 83.1614 42.7437 82.8753 42.7434C82.7104 42.7535 82.5451 42.7289 82.3898 42.6702C82.2346 42.6118 82.0922 42.5206 81.9718 42.4028C81.7465 42.1437 81.6247 41.8051 81.6307 41.4556H84.8473V40.7667C84.8649 40.45 84.8218 40.133 84.7206 39.8339C84.6197 39.5349 84.4627 39.2597 84.2587 39.0248C84.0401 38.8081 83.7811 38.6407 83.498 38.533C83.215 38.4253 82.9136 38.3795 82.6129 38.3986C82.2916 38.3808 81.9703 38.4352 81.6708 38.5581C81.3712 38.681 81.1006 38.8695 80.8771 39.111C80.4288 39.6789 80.2049 40.4042 80.2511 41.1385C80.2297 41.4959 80.2788 41.854 80.3958 42.1907C80.5124 42.5273 80.6942 42.8353 80.9296 43.0956C81.1815 43.3364 81.4773 43.5223 81.7994 43.6417C82.121 43.7614 82.4629 43.8127 82.8041 43.7924C83.137 43.7971 83.4699 43.7669 83.7976 43.7023C84.0574 43.6425 84.3093 43.5493 84.5474 43.4244L84.2287 42.4811ZM81.9418 39.6942C82.0277 39.5975 82.1334 39.5219 82.2504 39.4722C82.3677 39.4229 82.4941 39.401 82.6204 39.4084C82.7475 39.4018 82.875 39.4237 82.9931 39.473C83.1115 39.5223 83.2184 39.5979 83.3065 39.6942C83.4905 39.9208 83.5858 40.2116 83.5726 40.5083H81.6607C81.6663 40.2101 81.7698 39.9228 81.9531 39.6942H81.9418Z" fill="white"/>
<path d="M16.1093 4.52485L17.0953 0H21.5154L17.4552 15.7156H12.7053L11.7755 11.0577C11.3381 8.83962 10.9995 6.92689 10.7596 5.31944C10.4934 7.05735 10.1447 8.97141 9.72484 11.0577L8.79509 15.7156H4.05635L0 0H4.41629L5.39103 4.52485C6.00837 7.39527 6.43073 9.492 6.65814 10.815C6.98055 8.75613 7.35545 6.65939 7.78283 4.52485L8.67138 0H12.8365L13.7212 4.52485C14.1436 6.65939 14.5185 8.75613 14.8459 10.815C15.0809 9.492 15.502 7.39527 16.1093 4.52485Z" fill="white"/>
<path d="M25.4932 15.7156H21.5942V4.32522H25.4932V15.7156ZM25.3882 3.1901H21.7329V0.0117493H25.3882V3.1901Z" fill="white"/>
<path d="M31.6264 16.0679C29.7919 16.0679 28.4423 15.76 27.5775 15.1441C26.7127 14.5283 26.2303 13.5106 26.1304 12.091H29.8793C29.8846 12.2982 29.9318 12.5019 30.0177 12.6888C30.1036 12.8756 30.2264 13.0414 30.378 13.1753C30.7787 13.4129 31.2381 13.5205 31.6976 13.4845C32.7286 13.4845 33.2422 13.1949 33.2422 12.6234C33.2436 12.4889 33.2093 12.3566 33.1432 12.2412C33.077 12.1258 32.9815 12.0319 32.8673 11.9697C32.4626 11.7615 32.0261 11.629 31.5776 11.5783L30.0143 11.3356C27.49 10.952 26.2278 9.76729 26.2278 7.78148C26.2044 7.23803 26.3156 6.69748 26.5507 6.212C26.7858 5.72655 27.1369 5.31262 27.57 5.01021C28.4672 4.36828 29.7681 4.0486 31.4727 4.05122C34.8542 4.05122 36.6225 5.3677 36.7775 8.00068H33.2159C33.1909 7.08733 32.6136 6.6307 31.4839 6.6307C30.5242 6.6307 30.0443 6.92035 30.0443 7.49183C30.0393 7.61129 30.0652 7.72993 30.1193 7.83534C30.1734 7.94071 30.2536 8.02894 30.3517 8.09071C30.6787 8.26121 31.0336 8.36611 31.3977 8.39993L33.2722 8.66218C34.5806 8.85398 35.5515 9.2454 36.1776 9.83645C36.515 10.1948 36.7728 10.6262 36.9327 11.1001C37.0927 11.5741 37.151 12.0789 37.1034 12.5789C37.0559 13.0789 36.9036 13.5619 36.6575 13.9937C36.4113 14.4255 36.0773 14.7955 35.679 15.0776C34.7243 15.7404 33.3734 16.0705 31.6264 16.0679Z" fill="white"/>
<path d="M49.0252 10.4627V11.1907H41.032C41.2869 12.4707 42.0105 13.1126 43.2101 13.1126C44.1099 13.1126 44.7547 12.7799 45.1334 12.1184H48.7703C48.5011 13.3007 47.7948 14.3237 46.8058 14.9641C45.7257 15.6566 44.4773 16.0099 43.2101 15.9818C42.4337 16.0161 41.6581 15.8896 40.9285 15.6094C40.1986 15.3293 39.5294 14.9011 38.9592 14.3496C38.4148 13.7858 37.9897 13.1094 37.7108 12.3638C37.4317 11.6183 37.3053 10.82 37.3394 10.0204C37.3394 8.21205 37.8754 6.77029 38.9476 5.69516C40.0198 4.60701 41.426 4.06293 43.1768 4.06293C43.9581 4.02853 44.7382 4.16145 45.4685 4.45361C46.1992 4.74577 46.8646 5.19093 47.4244 5.76175C48.4913 6.89425 49.0252 8.46123 49.0252 10.4627ZM43.1243 6.93993C41.9696 6.93993 41.2719 7.55705 41.032 8.79132H45.2837C45.0288 7.55442 44.309 6.93468 43.1243 6.93206V6.93993Z" fill="white"/>
<path d="M53.865 15.7156H49.5537V11.3474H53.865V15.7156Z" fill="white"/>
<path d="M61.8355 4.06297C62.484 4.03428 63.1296 4.1649 63.7208 4.44429C64.312 4.72373 64.8324 5.14412 65.2395 5.67172C66.0718 6.74942 66.488 8.19902 66.488 10.0204C66.488 11.8419 66.0718 13.2914 65.2395 14.3691C64.8339 14.8989 64.3143 15.321 63.7227 15.6013C63.1311 15.8815 62.4844 16.0119 61.8355 15.9818C61.2176 16.0182 60.6021 15.8817 60.0517 15.5865C59.5014 15.2913 59.0365 14.8481 58.7051 14.3026V15.7156H54.9224V0H58.8138V5.56212C59.1595 5.07069 59.6161 4.67645 60.1436 4.41478C60.671 4.15315 61.2525 4.03224 61.8355 4.06297ZM60.6733 7.24132C59.4013 7.24132 58.7662 8.1677 58.7688 10.0204C58.7714 11.8732 59.4061 12.8009 60.6733 12.8034C61.9404 12.8034 62.574 11.8471 62.574 9.93431C62.574 8.13897 61.9404 7.24132 60.6733 7.24132Z" fill="white"/>
<path d="M71.223 15.7156H67.3315V0H71.223V15.7156Z" fill="white"/>
<path d="M79.572 10.6388V4.3252H83.4522V15.7156H79.6583V14.2164C79.2684 14.7742 78.7551 15.2258 78.1628 15.533C77.5705 15.8403 76.9159 15.9942 76.2542 15.9818C75.75 16.0042 75.2469 15.9166 74.7771 15.7245C74.307 15.5324 73.8807 15.2401 73.5249 14.8662C72.8351 14.1225 72.4902 13.067 72.4902 11.6996V4.3252H76.3817V10.8385C76.3817 11.971 76.8743 12.5373 77.8588 12.5373C78.0848 12.5452 78.3098 12.5053 78.5205 12.4198C78.7312 12.3344 78.9231 12.2052 79.0847 12.0401C79.2541 11.8543 79.385 11.6339 79.469 11.3928C79.5529 11.1516 79.5878 10.8949 79.572 10.6388Z" fill="white"/>
<path d="M96.0005 10.4627V11.1908H88.0077C88.2626 12.4707 88.9862 13.1127 90.1858 13.1127C91.0905 13.1127 91.7315 12.7812 92.1091 12.1185H95.7456C95.4764 13.3007 94.7704 14.3238 93.7811 14.9641C92.701 15.6566 91.453 16.0099 90.1858 15.9818C88.4362 15.9818 87.0206 15.4377 85.9382 14.3496C85.3916 13.7873 84.9639 13.1114 84.6827 12.3657C84.4019 11.6199 84.2741 10.821 84.3074 10.0204C84.3074 8.21205 84.8435 6.77029 85.9157 5.69521C86.9879 4.62008 88.3976 4.07601 90.1446 4.06297C90.9262 4.02853 91.706 4.16149 92.4367 4.45365C93.167 4.74581 93.8328 5.19097 94.3922 5.76175C95.4644 6.89425 96.0005 8.46127 96.0005 10.4627ZM90.0996 6.93993C88.9449 6.93993 88.2476 7.55708 88.0077 8.79136H92.259C92.0041 7.55446 91.2843 6.93472 90.0996 6.9321V6.93993Z" fill="white"/>
<path d="M11.775 19.0975L12.7048 23.7946H17.4397L19.2167 16.8312H15.2203C15.0629 17.614 14.9354 18.299 14.8454 18.8392C14.7442 18.1738 14.6317 17.5044 14.5193 16.8312H11.3589C11.4814 17.5514 11.62 18.3068 11.775 19.0975Z" fill="white"/>
<path d="M4.05629 23.8063H8.79503L9.72478 19.1092C9.87848 18.3264 10.0209 17.5827 10.1559 16.8546H6.97303C6.86056 17.5279 6.75184 18.1972 6.64687 18.8626C6.55689 18.3225 6.42943 17.6492 6.27197 16.8546H2.2793L4.05629 23.8063Z" fill="white"/>
<path d="M25.4964 16.8429H21.605V23.8063H25.4964V16.8429Z" fill="white"/>
<path d="M30.0407 19.3872L31.604 19.6338C32.0531 19.6816 32.49 19.8142 32.8937 20.0252C33.0085 20.0887 33.1043 20.184 33.1704 20.3008C33.2366 20.4175 33.2705 20.5511 33.2686 20.6867C33.2686 21.266 32.7537 21.5556 31.724 21.5556C31.2639 21.5927 30.8039 21.4835 30.4043 21.2425C30.2524 21.1073 30.1295 20.9401 30.0436 20.7519C29.9576 20.5638 29.9107 20.3588 29.9057 20.1504H26.1567C26.2542 21.5805 26.7366 22.606 27.6039 23.227C28.4711 23.8481 29.8208 24.1612 31.6528 24.1664C33.4023 24.1664 34.7544 23.835 35.7092 23.1722C36.1082 22.8838 36.4423 22.5082 36.6883 22.0714C36.9343 21.6346 37.0863 21.1471 37.1338 20.6428C37.1812 20.1385 37.123 19.6295 36.963 19.1511C36.8032 18.6727 36.5454 18.2363 36.2077 17.8724C35.6012 17.35 34.8775 16.9972 34.1046 16.8468H26.3892C26.7766 18.2246 27.9938 19.0714 30.0407 19.3872Z" fill="white"/>
<path d="M37.3395 18.0485C37.3395 19.8751 37.882 21.3325 38.9666 22.4207C39.5338 22.9783 40.2023 23.4117 40.9322 23.6954C41.6625 23.9791 42.4396 24.1073 43.2179 24.0725C44.4862 24.1016 45.7354 23.7453 46.8132 23.0469C47.8052 22.3933 48.5107 21.3585 48.7777 20.1661H45.1412C44.7663 20.8354 44.1177 21.172 43.2179 21.172C42.0183 21.172 41.2947 20.5262 41.0398 19.2149H49.0326V18.479C49.0333 17.9251 48.9854 17.3722 48.8901 16.8272H37.422C37.3644 17.2315 37.3368 17.6398 37.3395 18.0485Z" fill="white"/>
<path d="M53.865 19.3872H49.5537V23.8063H53.865V19.3872Z" fill="white"/>
<path d="M54.9224 16.8429V23.8063H58.7088V22.3776C59.0376 22.9269 59.5014 23.3739 60.0521 23.672C60.6028 23.9702 61.2199 24.1085 61.8392 24.0725C62.4893 24.1007 63.1367 23.968 63.7283 23.6849C64.3199 23.4019 64.8392 22.9768 65.2433 22.4442C66.0756 21.3586 66.4917 19.8934 66.4917 18.0485C66.4917 17.6455 66.4677 17.2429 66.4205 16.8429H62.4578C62.5294 17.2099 62.5635 17.5839 62.559 17.9585C62.559 19.8921 61.9254 20.8589 60.6583 20.8589C59.3911 20.8589 58.7564 19.9221 58.7538 18.0485C58.7497 17.6434 58.7887 17.2391 58.87 16.8429H54.9224Z" fill="white"/>
<path d="M71.223 16.8429H67.3315V23.8063H71.223V16.8429Z" fill="white"/>
<path d="M72.4902 16.8429V19.7433C72.4902 21.129 72.8351 22.1936 73.5249 22.9452C73.8789 23.3224 74.3047 23.6176 74.7749 23.8118C75.245 24.006 75.7492 24.0948 76.2542 24.0725C76.9178 24.085 77.5742 23.929 78.1669 23.6181C78.76 23.3072 79.2718 22.8506 79.6583 22.2876V23.8063H83.4522V16.8429H79.572V18.6708C79.5882 18.9293 79.5533 19.1884 79.4693 19.4322C79.3857 19.6759 79.2545 19.899 79.0847 20.0878C78.9242 20.2548 78.7327 20.3858 78.522 20.4726C78.3109 20.5595 78.0856 20.6004 77.8588 20.5927C76.8728 20.5927 76.3817 20.0173 76.3817 18.8744V16.8429H72.4902Z" fill="white"/>
<path d="M84.3066 18.0485C84.3066 19.8751 84.8502 21.3325 85.9374 22.4207C87.0246 23.5088 88.4455 24.0594 90.2 24.0725C91.4683 24.1016 92.7175 23.7453 93.7953 23.0469C94.7873 22.3933 95.4928 21.3585 95.7598 20.1661H92.1233C91.7457 20.8367 91.1047 21.172 90.2 21.172C89.0004 21.172 88.2768 20.5262 88.0219 19.2149H96.0147V18.479C96.0154 17.9251 95.9675 17.3722 95.8722 16.8272H84.3966C84.3366 17.2313 84.3063 17.6396 84.3066 18.0485Z" fill="white"/>
<path d="M2.93555 24.9493L4.06023 29.3058H8.79519L9.66495 24.9493H2.93555Z" fill="white"/>
<path d="M18.5653 24.9493H11.8359L12.7057 29.3058H17.4407L18.5653 24.9493Z" fill="white"/>
<path d="M25.4964 24.9493H21.605V29.3058H25.4964V24.9493Z" fill="white"/>
<path d="M33.2539 25.9631C33.2539 26.5815 32.7402 26.8868 31.7093 26.8868C31.2472 26.9258 30.7851 26.8107 30.3897 26.558C30.2345 26.4079 30.1102 26.2264 30.0245 26.0245C29.9388 25.8226 29.8934 25.6046 29.8911 25.3838H26.1421C26.2396 26.8998 26.7219 27.9893 27.5892 28.6521C28.4564 29.3149 29.8061 29.6476 31.6381 29.6502C33.3876 29.6502 34.7397 29.2979 35.6944 28.5934C36.1592 28.2631 36.5354 27.8143 36.7874 27.2896C37.0393 26.7648 37.1587 26.1816 37.1341 25.5951C37.1328 25.3751 37.1178 25.1554 37.0891 24.9375H32.0917C32.3794 24.9937 32.6559 25.1009 32.909 25.2546C33.0218 25.3298 33.1133 25.4351 33.1739 25.5597C33.2346 25.6843 33.2622 25.8236 33.2539 25.9631Z" fill="white"/>
<path d="M38.9592 27.9398C39.5294 28.4913 40.1986 28.9195 40.9286 29.1997C41.6581 29.4798 42.4338 29.6064 43.2106 29.572C44.4773 29.6013 45.7254 29.2494 46.8058 28.5582C47.7944 27.9154 48.5 26.8915 48.7703 25.7087H45.1338C44.7589 26.3702 44.1103 26.7029 43.2106 26.7029C42.7093 26.7421 42.2122 26.5837 41.8174 26.2591C41.4223 25.9345 41.1584 25.4672 41.0774 24.9493H37.4482C37.6328 26.0891 38.1626 27.1371 38.9592 27.9398Z" fill="white"/>
<path d="M53.865 24.9493H49.5537V29.3058H53.865V24.9493Z" fill="white"/>
<path d="M54.9224 29.3137H58.7088V27.9006C59.0402 28.4461 59.5051 28.8894 60.0555 29.1845C60.6058 29.4797 61.2214 29.6162 61.8392 29.5798C62.4882 29.6099 63.1349 29.4796 63.7265 29.1993C64.3177 28.9191 64.8377 28.4969 65.2433 27.9672C65.8896 27.0952 66.2919 26.0533 66.4055 24.9571H62.4128C62.1504 25.92 61.573 26.4015 60.6733 26.4015C60.2624 26.4271 59.8571 26.2941 59.5344 26.0278C59.2112 25.7614 58.9937 25.3803 58.9225 24.9571H54.9224V29.3137Z" fill="white"/>
<path d="M71.223 24.9493H67.3315V29.3058H71.223V24.9493Z" fill="white"/>
<path d="M72.4902 25.2898C72.4902 26.6598 72.8351 27.7128 73.5249 28.4565C73.8807 28.8303 74.307 29.1226 74.7771 29.3147C75.2469 29.5068 75.75 29.5944 76.2542 29.572C76.9159 29.5844 77.5705 29.4305 78.1628 29.1232C78.7551 28.816 79.2684 28.3644 79.6583 27.8067V29.3137H83.4522V24.9493H79.4708C79.4033 25.2059 79.2744 25.4403 79.0959 25.6304C78.9343 25.7955 78.7428 25.9246 78.5317 26.0101C78.321 26.0955 78.0961 26.1354 77.87 26.1275C77.0527 26.1275 76.5766 25.7361 76.4379 24.9532H72.5015L72.4902 25.2898Z" fill="white"/>
<path d="M85.9379 27.9398C87.0203 29.0279 88.4362 29.572 90.1855 29.572C91.4523 29.6013 92.7007 29.2494 93.7808 28.5582C94.7694 27.9154 95.4753 26.8915 95.7452 25.7087H92.1087C91.7316 26.3715 91.0905 26.7029 90.1855 26.7029C89.6846 26.7421 89.1875 26.5837 88.7924 26.2591C88.3976 25.9345 88.1337 25.4672 88.0523 24.9493H84.4233C84.6078 26.09 85.139 27.1385 85.9379 27.9398Z" fill="white"/>
</g>
<mask id="path-38-inside-1_44_105" fill="white">
<path d="M105 0H107V31H105V0Z"/>
</mask>
<path d="M107 0H106V31H107H108V0H107Z" fill="white" mask="url(#path-38-inside-1_44_105)"/>
<path d="M128.1 12.2507C128.036 11.5476 127.752 11.0011 127.247 10.6112C126.748 10.2148 126.036 10.0167 125.109 10.0167C124.495 10.0167 123.984 10.0966 123.575 10.2564C123.165 10.4162 122.859 10.6367 122.654 10.918C122.45 11.1928 122.344 11.5092 122.338 11.8672C122.325 12.1612 122.382 12.4201 122.51 12.6438C122.645 12.8675 122.836 13.0657 123.086 13.2383C123.341 13.4045 123.648 13.5515 124.006 13.6793C124.364 13.8072 124.767 13.919 125.214 14.0149L126.902 14.3984C127.873 14.6094 128.73 14.8906 129.471 15.2422C130.219 15.5938 130.846 16.0124 131.35 16.4982C131.862 16.984 132.249 17.5433 132.511 18.1761C132.773 18.8089 132.907 19.5185 132.913 20.3047C132.907 21.5447 132.594 22.609 131.974 23.4975C131.354 24.386 130.462 25.0668 129.299 25.5398C128.142 26.0128 126.745 26.2493 125.109 26.2493C123.466 26.2493 122.034 26.0032 120.813 25.511C119.592 25.0188 118.643 24.271 117.966 23.2674C117.288 22.2638 116.94 20.995 116.92 19.4609H121.465C121.504 20.0938 121.673 20.6211 121.973 21.043C122.274 21.4648 122.686 21.7844 123.21 22.0018C123.741 22.2191 124.354 22.3278 125.051 22.3278C125.69 22.3278 126.234 22.2415 126.681 22.0689C127.135 21.8963 127.483 21.6566 127.726 21.3498C127.969 21.043 128.094 20.6914 128.1 20.2951C128.094 19.9244 127.979 19.608 127.755 19.3459C127.531 19.0774 127.186 18.8473 126.719 18.6555C126.259 18.4574 125.671 18.2752 124.955 18.109L122.903 17.6296C121.203 17.2397 119.864 16.6101 118.886 15.7408C117.908 14.8651 117.422 13.6825 117.429 12.1932C117.422 10.9787 117.748 9.91442 118.407 9.00035C119.065 8.08629 119.976 7.37358 121.139 6.86222C122.303 6.35085 123.629 6.09517 125.118 6.09517C126.64 6.09517 127.96 6.35405 129.078 6.8718C130.203 7.38317 131.076 8.10227 131.696 9.02912C132.316 9.95597 132.632 11.0298 132.645 12.2507H128.1ZM134.668 10.218V6.36364H151.265V10.218H145.311V26H140.632V10.218H134.668ZM165.462 6.36364H170.199V19.0295C170.199 20.4933 169.851 21.7685 169.154 22.8551C168.457 23.9354 167.486 24.7727 166.239 25.3672C164.993 25.9553 163.545 26.2493 161.896 26.2493C160.227 26.2493 158.77 25.9553 157.524 25.3672C156.277 24.7727 155.309 23.9354 154.618 22.8551C153.928 21.7685 153.583 20.4933 153.583 19.0295V6.36364H158.329V18.6172C158.329 19.2947 158.476 19.8988 158.77 20.4293C159.07 20.9599 159.489 21.3754 160.026 21.6758C160.563 21.9762 161.186 22.1264 161.896 22.1264C162.605 22.1264 163.225 21.9762 163.756 21.6758C164.293 21.3754 164.711 20.9599 165.012 20.4293C165.312 19.8988 165.462 19.2947 165.462 18.6172V6.36364ZM180.432 26H173.174V6.36364H180.422C182.423 6.36364 184.146 6.75675 185.59 7.54297C187.041 8.3228 188.16 9.4478 188.946 10.918C189.732 12.3817 190.125 14.1332 190.125 16.1722C190.125 18.2177 189.732 19.9755 188.946 21.4457C188.166 22.9158 187.051 24.044 185.6 24.8303C184.149 25.6101 182.426 26 180.432 26ZM177.92 21.9538H180.25C181.349 21.9538 182.279 21.7685 183.04 21.3977C183.807 21.0206 184.385 20.4102 184.775 19.5664C185.172 18.7163 185.37 17.5849 185.37 16.1722C185.37 14.7596 185.172 13.6346 184.775 12.7972C184.379 11.9535 183.794 11.3462 183.021 10.9755C182.254 10.5984 181.308 10.4098 180.183 10.4098H177.92V21.9538ZM197.642 6.36364V26H192.896V6.36364H197.642ZM219.156 16.1818C219.156 18.3423 218.74 20.1737 217.909 21.6758C217.078 23.1779 215.953 24.3189 214.534 25.0987C213.122 25.8786 211.536 26.2685 209.778 26.2685C208.014 26.2685 206.426 25.8754 205.013 25.0891C203.601 24.3029 202.479 23.1619 201.648 21.6662C200.823 20.1641 200.411 18.3359 200.411 16.1818C200.411 14.0213 200.823 12.19 201.648 10.6879C202.479 9.18572 203.601 8.04474 205.013 7.26491C206.426 6.48508 208.014 6.09517 209.778 6.09517C211.536 6.09517 213.122 6.48508 214.534 7.26491C215.953 8.04474 217.078 9.18572 217.909 10.6879C218.74 12.19 219.156 14.0213 219.156 16.1818ZM214.304 16.1818C214.304 14.9034 214.122 13.8232 213.758 12.9411C213.4 12.0589 212.882 11.391 212.204 10.9371C211.533 10.4833 210.725 10.2564 209.778 10.2564C208.839 10.2564 208.03 10.4833 207.353 10.9371C206.675 11.391 206.154 12.0589 205.79 12.9411C205.432 13.8232 205.253 14.9034 205.253 16.1818C205.253 17.4602 205.432 18.5405 205.79 19.4226C206.154 20.3047 206.675 20.9727 207.353 21.4265C208.03 21.8803 208.839 22.1072 209.778 22.1072C210.725 22.1072 211.533 21.8803 212.204 21.4265C212.882 20.9727 213.4 20.3047 213.758 19.4226C214.122 18.5405 214.304 17.4602 214.304 16.1818Z" fill="white"/>
</svg>
